{"accessors" : [{"bufferView" : 0, "byteOffset" : 0, "componentType" : 5123, "count" : 8448, "type" : "SCALAR", "max" : [7261], "min" : [0]}, {"bufferView" : 1, "byteOffset" : 0, "componentType" : 5126, "count" : 7262, "type" : "VEC3", "max" : [86.37468719482422, -1.8428130149841309, 97.66647338867188], "min" : [-23.50649070739746, -111.19808959960938, -110.43817138671875], "name" : "POSITION"}, {"bufferView" : 1, "byteOffset" : 12, "componentType" : 5126, "count" : 7262, "type" : "VEC2", "max" : [6.183431148529053, 17.771202087402344], "min" : [-6.913000106811523, -18.482051849365234], "name" : "TEXCOORD_0"}, {"bufferView" : 1, "byteOffset" : 20, "componentType" : 5126, "count" : 7262, "type" : "VEC3", "max" : [0.9996882677078247, 0.9948216080665588, 0.995356559753418], "min" : [-0.999718427658081, -0.9948216080665588, -0.9994333982467651], "name" : "NORMAL"}, {"bufferView" : 0, "byteOffset" : 16896, "componentType" : 5123, "count" : 792, "type" : "SCALAR", "max" : [687], "min" : [0]}, {"bufferView" : 2, "byteOffset" : 0, "componentType" : 5126, "count" : 688, "type" : "VEC3", "max" : [110.72127532958984, 49.999813079833984, -64.8600082397461], "min" : [-48.73720169067383, -33.87863540649414, -173.23739624023438], "name" : "POSITION"}, {"bufferView" : 2, "byteOffset" : 12, "componentType" : 5126, "count" : 688, "type" : "VEC2", "max" : [15.673959732055664, 5.699999809265137], "min" : [-11.67396068572998, -13.5], "name" : "TEXCOORD_0"}, {"bufferView" : 2, "byteOffset" : 20, "componentType" : 5126, "count" : 688, "type" : "VEC3", "max" : [1.0000044107437134, 0.9928240776062012, 0.9928240776062012], "min" : [-1.0000044107437134, -0.9928240776062012, -0.9928240776062012], "name" : "NORMAL"}, {"bufferView" : 0, "byteOffset" : 18480, "componentType" : 5123, "count" : 1290, "type" : "SCALAR", "max" : [1125], "min" : [0]}, {"bufferView" : 3, "byteOffset" : 0, "componentType" : 5126, "count" : 1126, "type" : "VEC3", "max" : [110.9920425415039, -19.321645736694336, -159.21047973632812], "min" : [-49.00796127319336, -119.32164001464844, -174.21047973632812], "name" : "POSITION"}, {"bufferView" : 3, "byteOffset" : 12, "componentType" : 5126, "count" : 1126, "type" : "VEC2", "max" : [15.699999809265137, 4.699999809265137], "min" : [-13.700000762939453, -13.600000381469727], "name" : "TEXCOORD_0"}, {"bufferView" : 3, "byteOffset" : 20, "componentType" : 5126, "count" : 1126, "type" : "VEC3", "max" : [1.0000044107437134, 1.0000044107437134, 1.0000044107437134], "min" : [-1.0000044107437134, -1.0000044107437134, -1.0000044107437134], "name" : "NORMAL"}, {"bufferView" : 0, "byteOffset" : 21060, "componentType" : 5123, "count" : 1212, "type" : "SCALAR", "max" : [1039], "min" : [0]}, {"bufferView" : 4, "byteOffset" : 0, "componentType" : 5126, "count" : 1040, "type" : "VEC3", "max" : [91.16333770751953, 5.30185604095459, 107.67990112304688], "min" : [-28.29513931274414, -114.51469421386719, 86.58759307861328], "name" : "POSITION"}, {"bufferView" : 4, "byteOffset" : 12, "componentType" : 5126, "count" : 1040, "type" : "VEC2", "max" : [11.765554428100586, 15.135416984558105], "min" : [-9.600000381469727, -16.90232276916504], "name" : "TEXCOORD_0"}, {"bufferView" : 4, "byteOffset" : 20, "componentType" : 5126, "count" : 1040, "type" : "VEC3", "max" : [1.0000044107437134, 0.9952183365821838, 0.9952183365821838], "min" : [-1.0000044107437134, -0.9952183365821838, -0.9952183365821838], "name" : "NORMAL"}, {"bufferView" : 0, "byteOffset" : 23484, "componentType" : 5123, "count" : 708, "type" : "SCALAR", "max" : [609], "min" : [0]}, {"bufferView" : 5, "byteOffset" : 0, "componentType" : 5126, "count" : 610, "type" : "VEC3", "max" : [100.79281616210938, 51.62754440307617, 90.29792785644531], "min" : [-38.808746337890625, 2.773118019104004, -65.4384765625], "name" : "POSITION"}, {"bufferView" : 5, "byteOffset" : 12, "componentType" : 5126, "count" : 610, "type" : "VEC2", "max" : [15.74787712097168, 7.699244022369385], "min" : [-11.905694961547852, -7.699244022369385], "name" : "TEXCOORD_0"}, {"bufferView" : 5, "byteOffset" : 20, "componentType" : 5126, "count" : 610, "type" : "VEC3", "max" : [0.9980567097663879, 0.9670873880386353, 0.9670873880386353], "min" : [-0.9980567097663879, -0.9670873880386353, -0.9670873880386353], "name" : "NORMAL"}, {"bufferView" : 0, "byteOffset" : 24900, "componentType" : 5123, "count" : 1044, "type" : "SCALAR", "max" : [897], "min" : [0]}, {"bufferView" : 6, "byteOffset" : 0, "componentType" : 5126, "count" : 898, "type" : "VEC3", "max" : [107.7452392578125, -107.74041748046875, -112.30244445800781], "min" : [-45.761165618896484, -125.65602111816406, -162.24154663085938], "name" : "POSITION"}, {"bufferView" : 6, "byteOffset" : 12, "componentType" : 5126, "count" : 898, "type" : "VEC2", "max" : [15.375812530517578, 2.200000047683716], "min" : [-11.375812530517578, -2.200000047683716], "name" : "TEXCOORD_0"}, {"bufferView" : 6, "byteOffset" : 20, "componentType" : 5126, "count" : 898, "type" : "VEC3", "max" : [0.99836266040802, 0.9992062449455261, 0.9893276691436768], "min" : [-0.99836266040802, -0.9831860065460205, -0.9935429692268372], "name" : "NORMAL"}, {"bufferView" : 0, "byteOffset" : 26988, "componentType" : 5123, "count" : 612, "type" : "SCALAR", "max" : [532], "min" : [0]}, {"bufferView" : 7, "byteOffset" : 0, "componentType" : 5126, "count" : 533, "type" : "VEC3", "max" : [70.99203491210938, -38.8129768371582, -112.32087707519531], "min" : [-9.007963180541992, -118.29257202148438, -135.0161895751953], "name" : "POSITION"}, {"bufferView" : 7, "byteOffset" : 12, "componentType" : 5126, "count" : 533, "type" : "VEC2", "max" : [7.699999809265137, 3.700000047683716], "min" : [-5.699999809265137, -3.700000047683716], "name" : "TEXCOORD_0"}, {"bufferView" : 7, "byteOffset" : 20, "componentType" : 5126, "count" : 533, "type" : "VEC3", "max" : [1.0000044107437134, 0.984818696975708, 0.984818696975708], "min" : [-1.0000044107437134, -0.984818696975708, -0.984818696975708], "name" : "NORMAL"}, {"bufferView" : 0, "byteOffset" : 28212, "componentType" : 5123, "count" : 840, "type" : "SCALAR", "max" : [718], "min" : [0]}, {"bufferView" : 8, "byteOffset" : 0, "componentType" : 5126, "count" : 719, "type" : "VEC3", "max" : [51.83757019042969, -48.251373291015625, -141.21047973632812], "min" : [10.067649841308594, -90.25137329101562, -169.24197387695312], "name" : "POSITION"}, {"bufferView" : 8, "byteOffset" : 12, "componentType" : 5126, "count" : 719, "type" : "VEC2", "max" : [2.0999999046325684, 7.381587982177734], "min" : [-2.054110050201416, -7.037168025970459], "name" : "TEXCOORD_0"}, {"bufferView" : 8, "byteOffset" : 20, "componentType" : 5126, "count" : 719, "type" : "VEC3", "max" : [1.0000044107437134, 1.0000044107437134, 1.0000044107437134], "min" : [-1.0000044107437134, -1.0000044107437134, -1.0000044107437134], "name" : "NORMAL"}, {"bufferView" : 0, "byteOffset" : 29892, "componentType" : 5123, "count" : 7110, "type" : "SCALAR", "max" : [6072], "min" : [0]}, {"bufferView" : 9, "byteOffset" : 0, "componentType" : 5126, "count" : 6073, "type" : "VEC3", "max" : [84.89315032958984, -3.0204639434814453, 200.4925079345703], "min" : [-22.024953842163086, -108.84778594970703, 93.07328796386719], "name" : "POSITION"}, {"bufferView" : 9, "byteOffset" : 12, "componentType" : 5126, "count" : 6073, "type" : "VEC2", "max" : [5.232112884521484, 19.107866287231445], "min" : [-5.232112884521484, -19.107866287231445], "name" : "TEXCOORD_0"}, {"bufferView" : 9, "byteOffset" : 20, "componentType" : 5126, "count" : 6073, "type" : "VEC3", "max" : [0.9999173879623413, 0.9951319694519043, 0.9969499111175537], "min" : [-0.9999173879623413, -0.9951319694519043, -0.9959226846694946], "name" : "NORMAL"}, {"bufferView" : 0, "byteOffset" : 44112, "componentType" : 5123, "count" : 228, "type" : "SCALAR", "max" : [194], "min" : [0]}, {"bufferView" : 10, "byteOffset" : 0, "componentType" : 5126, "count" : 195, "type" : "VEC3", "max" : [111.97549438476562, -75.09452819824219, -48.18961715698242], "min" : [54.60261154174805, -108.18364715576172, -58.33052062988281], "name" : "POSITION"}, {"bufferView" : 10, "byteOffset" : 12, "componentType" : 5126, "count" : 195, "type" : "VEC2", "max" : [1.4751089811325073, 8.592470169067383], "min" : [-1.4751089811325073, -9.193973541259766], "name" : "TEXCOORD_0"}, {"bufferView" : 10, "byteOffset" : 20, "componentType" : 5126, "count" : 195, "type" : "VEC3", "max" : [0.9964584708213806, 0.9925584197044373, 0.9949083924293518], "min" : [-0.9963534474372864, -0.9925674796104431, -0.9949083924293518], "name" : "NORMAL"}, {"bufferView" : 0, "byteOffset" : 44568, "componentType" : 5123, "count" : 228, "type" : "SCALAR", "max" : [197], "min" : [0]}, {"bufferView" : 11, "byteOffset" : 0, "componentType" : 5126, "count" : 198, "type" : "VEC3", "max" : [95.13269805908203, -7.66494607925415, 99.6240463256836], "min" : [82.15757751464844, -107.41510772705078, 88.35107421875], "name" : "POSITION"}, {"bufferView" : 11, "byteOffset" : 12, "componentType" : 5126, "count" : 198, "type" : "VEC2", "max" : [9.634690284729004, 5.017344951629639], "min" : [-0.24955900013446808, -5.017344951629639], "name" : "TEXCOORD_0"}, {"bufferView" : 11, "byteOffset" : 20, "componentType" : 5126, "count" : 198, "type" : "VEC3", "max" : [0.9965499043464661, 0.9917805194854736, 0.9952183365821838], "min" : [-0.9965499043464661, -0.9917805194854736, -0.9952183365821838], "name" : "NORMAL"}, {"bufferView" : 0, "byteOffset" : 45024, "componentType" : 5123, "count" : 168, "type" : "SCALAR", "max" : [142], "min" : [0]}, {"bufferView" : 12, "byteOffset" : 0, "componentType" : 5126, "count" : 143, "type" : "VEC3", "max" : [57.39965057373047, -45.32714080810547, -51.61493682861328], "min" : [7.757174968719482, -95.24984741210938, -61.444976806640625], "name" : "POSITION"}, {"bufferView" : 12, "byteOffset" : 12, "componentType" : 5126, "count" : 143, "type" : "VEC2", "max" : [2.5, 8.377580642700195], "min" : [-2.5, -7.330382823944092], "name" : "TEXCOORD_0"}, {"bufferView" : 12, "byteOffset" : 20, "componentType" : 5126, "count" : 143, "type" : "VEC3", "max" : [0.9989132285118103, 0.9838282465934753, 0.9952183365821838], "min" : [-0.9867942333221436, -0.9935442805290222, -0.9952183365821838], "name" : "NORMAL"}, {"bufferView" : 0, "byteOffset" : 45360, "componentType" : 5123, "count" : 168, "type" : "SCALAR", "max" : [142], "min" : [0]}, {"bufferView" : 13, "byteOffset" : 0, "componentType" : 5126, "count" : 143, "type" : "VEC3", "max" : [83.0528335571289, -5.104578018188477, 103.33027648925781], "min" : [-15.85454273223877, -104.47166442871094, 89.63087463378906], "name" : "POSITION"}, {"bufferView" : 13, "byteOffset" : 12, "componentType" : 5126, "count" : 143, "type" : "VEC2", "max" : [5, 16.75516128540039], "min" : [-5, -14.6607666015625], "name" : "TEXCOORD_0"}, {"bufferView" : 13, "byteOffset" : 20, "componentType" : 5126, "count" : 143, "type" : "VEC3", "max" : [1.0000044107437134, 0.9897657036781311, 0.9952183365821838], "min" : [-0.978151261806488, -0.9897657036781311, -0.9952183365821838], "name" : "NORMAL"}], "asset" : {"generator" : "Aspose.3D 22.6", "version" : "2.0"}, "buffers" : [{"uri" : "data:application/octet-stream;base64,", "byteLength" : 776888}], "bufferViews" : [{"buffer" : 0, "byteOffset" : 0, "byteLength" : 45696, "target" : 34963}, {"buffer" : 0, "byteOffset" : 45700, "byteLength" : 270336, "byteStride" : 32, "target" : 34962}, {"buffer" : 0, "byteOffset" : 316040, "byteLength" : 25344, "byteStride" : 32, "target" : 34962}, {"buffer" : 0, "byteOffset" : 341388, "byteLength" : 41280, "byteStride" : 32, "target" : 34962}, {"buffer" : 0, "byteOffset" : 382672, "byteLength" : 38784, "byteStride" : 32, "target" : 34962}, {"buffer" : 0, "byteOffset" : 421460, "byteLength" : 22656, "byteStride" : 32, "target" : 34962}, {"buffer" : 0, "byteOffset" : 444120, "byteLength" : 33408, "byteStride" : 32, "target" : 34962}, {"buffer" : 0, "byteOffset" : 477532, "byteLength" : 19584, "byteStride" : 32, "target" : 34962}, {"buffer" : 0, "byteOffset" : 497120, "byteLength" : 26880, "byteStride" : 32, "target" : 34962}, {"buffer" : 0, "byteOffset" : 524004, "byteLength" : 227520, "byteStride" : 32, "target" : 34962}, {"buffer" : 0, "byteOffset" : 751528, "byteLength" : 7296, "byteStride" : 32, "target" : 34962}, {"buffer" : 0, "byteOffset" : 758828, "byteLength" : 7296, "byteStride" : 32, "target" : 34962}, {"buffer" : 0, "byteOffset" : 766128, "byteLength" : 5376, "byteStride" : 32, "target" : 34962}, {"buffer" : 0, "byteOffset" : 771508, "byteLength" : 5376, "byteStride" : 32, "target" : 34962}], "materials" : [{"name" : "207,79,0", "pbrMetallicRoughness" : {"baseColorFactor" : [0.811765, 0.309804, 0, 1], "metallicFactor" : 0, "roughnessFactor" : 0}, "emissiveFactor" : [0, 0, 0], "alphaMode" : "OPAQUE", "doubleSided" : false}, {"name" : "F7264DC507FAA6BB80752685574C4D6C96586592", "pbrMetallicRoughness" : {"baseColorFactor" : [1, 1, 1, 1], "metallicFactor" : 0, "roughnessFactor" : 0}, "emissiveFactor" : [0, 0, 0], "alphaMode" : "OPAQUE", "doubleSided" : false}, {"name" : "24,37,248", "pbrMetallicRoughness" : {"baseColorFactor" : [0.094118, 0.145098, 0.972549, 1], "metallicFactor" : 0, "roughnessFactor" : 0}, "emissiveFactor" : [0, 0, 0], "alphaMode" : "OPAQUE", "doubleSided" : false}, {"name" : "320FE8C548D6AE1700C709E036C89D34D8B0BC4F", "pbrMetallicRoughness" : {"baseColorFactor" : [1, 1, 1, 1], "metallicFactor" : 0, "roughnessFactor" : 0}, "emissiveFactor" : [0, 0, 0], "alphaMode" : "OPAQUE", "doubleSided" : false}, {"name" : "EA3DE38E6791619F4E5BEF9582D93EDBFBB4403E", "pbrMetallicRoughness" : {"baseColorFactor" : [1, 1, 1, 1], "metallicFactor" : 0, "roughnessFactor" : 0}, "emissiveFactor" : [0, 0, 0], "alphaMode" : "OPAQUE", "doubleSided" : false}, {"name" : "A5649B429840776B57407337F9B8E1C99B7F8104", "pbrMetallicRoughness" : {"baseColorFactor" : [1, 1, 1, 1], "metallicFactor" : 0, "roughnessFactor" : 0}, "emissiveFactor" : [0, 0, 0], "alphaMode" : "OPAQUE", "doubleSided" : false}, {"name" : "1,62,241", "pbrMetallicRoughness" : {"baseColorFactor" : [0.003922, 0.243137, 0.945098, 1], "metallicFactor" : 0, "roughnessFactor" : 0}, "emissiveFactor" : [0, 0, 0], "alphaMode" : "OPAQUE", "doubleSided" : false}, {"name" : "245,245,245", "pbrMetallicRoughness" : {"baseColorFactor" : [0.960784, 0.960784, 0.960784, 1], "metallicFactor" : 0, "roughnessFactor" : 0}, "emissiveFactor" : [0, 0, 0], "alphaMode" : "OPAQUE", "doubleSided" : false}, {"name" : "221,124,15", "pbrMetallicRoughness" : {"baseColorFactor" : [0.866667, 0.486275, 0.058824, 1], "metallicFactor" : 0, "roughnessFactor" : 0}, "emissiveFactor" : [0, 0, 0], "alphaMode" : "OPAQUE", "doubleSided" : false}, {"name" : "320FE8C548D6AE1700C709E036C89D34D8B0BC4F", "pbrMetallicRoughness" : {"baseColorFactor" : [1, 1, 1, 1], "metallicFactor" : 0, "roughnessFactor" : 0}, "emissiveFactor" : [0, 0, 0], "alphaMode" : "OPAQUE", "doubleSided" : false}, {"name" : "221,124,15", "pbrMetallicRoughness" : {"baseColorFactor" : [0.866667, 0.486275, 0.058824, 1], "metallicFactor" : 0, "roughnessFactor" : 0}, "emissiveFactor" : [0, 0, 0], "alphaMode" : "OPAQUE", "doubleSided" : false}, {"name" : "236,241,239", "pbrMetallicRoughness" : {"baseColorFactor" : [0.92549, 0.945098, 0.937255, 1], "metallicFactor" : 0, "roughnessFactor" : 0}, "emissiveFactor" : [0, 0, 0], "alphaMode" : "OPAQUE", "doubleSided" : false}, {"name" : "236,241,239", "pbrMetallicRoughness" : {"baseColorFactor" : [0.92549, 0.945098, 0.937255, 1], "metallicFactor" : 0, "roughnessFactor" : 0}, "emissiveFactor" : [0, 0, 0], "alphaMode" : "OPAQUE", "doubleSided" : false}], "meshes" : [{"primitives" : [{"attributes" : {"POSITION" : 1, "TEXCOORD_0" : 2, "NORMAL" : 3}, "indices" : 0, "material" : 0, "mode" : 4}], "name" : ""}, {"primitives" : [{"attributes" : {"POSITION" : 5, "TEXCOORD_0" : 6, "NORMAL" : 7}, "indices" : 4, "material" : 1, "mode" : 4}], "name" : ""}, {"primitives" : [{"attributes" : {"POSITION" : 9, "TEXCOORD_0" : 10, "NORMAL" : 11}, "indices" : 8, "material" : 2, "mode" : 4}], "name" : ""}, {"primitives" : [{"attributes" : {"POSITION" : 13, "TEXCOORD_0" : 14, "NORMAL" : 15}, "indices" : 12, "material" : 3, "mode" : 4}], "name" : ""}, {"primitives" : [{"attributes" : {"POSITION" : 17, "TEXCOORD_0" : 18, "NORMAL" : 19}, "indices" : 16, "material" : 4, "mode" : 4}], "name" : ""}, {"primitives" : [{"attributes" : {"POSITION" : 21, "TEXCOORD_0" : 22, "NORMAL" : 23}, "indices" : 20, "material" : 5, "mode" : 4}], "name" : ""}, {"primitives" : [{"attributes" : {"POSITION" : 25, "TEXCOORD_0" : 26, "NORMAL" : 27}, "indices" : 24, "material" : 6, "mode" : 4}], "name" : ""}, {"primitives" : [{"attributes" : {"POSITION" : 29, "TEXCOORD_0" : 30, "NORMAL" : 31}, "indices" : 28, "material" : 7, "mode" : 4}], "name" : ""}, {"primitives" : [{"attributes" : {"POSITION" : 33, "TEXCOORD_0" : 34, "NORMAL" : 35}, "indices" : 32, "material" : 8, "mode" : 4}], "name" : ""}, {"primitives" : [{"attributes" : {"POSITION" : 37, "TEXCOORD_0" : 38, "NORMAL" : 39}, "indices" : 36, "material" : 9, "mode" : 4}], "name" : ""}, {"primitives" : [{"attributes" : {"POSITION" : 41, "TEXCOORD_0" : 42, "NORMAL" : 43}, "indices" : 40, "material" : 10, "mode" : 4}], "name" : ""}, {"primitives" : [{"attributes" : {"POSITION" : 45, "TEXCOORD_0" : 46, "NORMAL" : 47}, "indices" : 44, "material" : 11, "mode" : 4}], "name" : ""}, {"primitives" : [{"attributes" : {"POSITION" : 49, "TEXCOORD_0" : 50, "NORMAL" : 51}, "indices" : 48, "material" : 12, "mode" : 4}], "name" : ""}], "nodes" : [{"mesh" : 0, "name" : "Solid2"}, {"mesh" : 1, "name" : "Solid1"}, {"mesh" : 2, "name" : "Solid1:1"}, {"mesh" : 3, "name" : "Solid1:2"}, {"mesh" : 4, "name" : "Solid1:3"}, {"mesh" : 5, "name" : "Solid1:4"}, {"mesh" : 6, "name" : "Solid1:5"}, {"mesh" : 7, "name" : "Solid1:6"}, {"mesh" : 8, "name" : "Solid1:7"}, {"mesh" : 9, "name" : "Solid1:8"}, {"mesh" : 10, "name" : "Solid2:1"}, {"mesh" : 11, "name" : "Solid1:9"}, {"mesh" : 12, "name" : "Solid1:10"}], "scene" : 0, "scenes" : [{"nodes" : [0, 1, 2, 3, 4, 5, 6, 7, 8, 9, 10, 11, 12]}]}