<svg version="1.1" xmlns="http://www.w3.org/2000/svg" xmlns:xlink="http://www.w3.org/1999/xlink" width="1788.7957" height="170.86667" viewBox="0,0,1788.7957,170.86667"><g transform="translate(-18.5,-22.30004)"><g data-paper-data="{&quot;isPaintingLayer&quot;:true}" fill="#ffffff" stroke-linecap="butt" stroke-linejoin="miter" stroke-miterlimit="10" stroke-dasharray="" stroke-dashoffset="0" style="mix-blend-mode: normal"><g fill-rule="nonzero" stroke="#000000" stroke-width="0"><path d="M108.42998,113.67815v-32l44,39v32z"/><path d="M108.5,54.30004v-32l44,39v32z"/><path d="M64.82101,65.2167l-29.16667,-24.16666l72.86667,-18.75v31.5z"/><path d="M69.11667,192.78337l23.41666,-37.08334l59.83334,-16.83334v31.5z"/><path d="M69.25,115.05004l23.41666,-37.08334l59.5,-16.5v31.5z"/><g><path d="M18.5,155.30004v-112l26,21.5v112z"/><path d="M33.03333,90.50002v-35.26667l31,26v35.26667z"/><path d="M33.03333,167.16671v-35.26667l31,26v35.26667z"/></g></g><g fill-rule="evenodd" stroke="none" stroke-width="1"><g><g><path d="M1003.49189,55.3219h25.79787c0,0 2.22029,83.20232 1.66438,123.16406c-8.8778,0 -17.75227,0 -26.63007,0c-1.0419,-41.31987 -0.83219,-123.16406 -0.83219,-123.16406z"/><path d="M1040.94042,155.18465c15.57526,-0.55257 49.09919,0 49.09919,0c0,0 1.68435,15.6718 0.83219,23.30131c-16.64379,0 -33.28758,0 -49.93137,0c0,-7.766 0,-15.53531 0,-23.30131z"/></g><g><path d="M313.60685,168.49969c0,0 1.66338,-54.39524 0,-79.8902c-3.45725,2.4766 -20.4692,27.49887 -28.29444,36.61634c-2.87937,3.60505 -6.20814,4.15762 -9.98628,1.66438c-18.30817,-22.74541 -36.61634,-45.49414 -54.92451,-68.23955c-1.63109,-4.30409 -1.66437,-11.65065 -1.66437,-11.65065h23.3013c0,0 25.04092,29.47616 36.61635,44.93824c11.77149,-15.15251 36.61634,-44.93824 36.61634,-44.93824h23.30131c0,0 0,80.44611 0,121.49968c-8.51929,1.00528 -24.96569,0 -24.96569,0z"/><path d="M218.73724,125.22583c7.76699,0 15.53431,0 23.3013,0c0,14.42351 0,28.85035 0,43.27386c-7.76699,0 -15.53431,0 -23.3013,0c0,-14.42351 0,-28.85035 0,-43.27386z"/></g><g><path d="M355.2163,51.99315c31.0673,0 62.13794,0 93.20524,0c0,7.76699 0,15.53431 0,23.3013c-31.0673,0 -62.13794,0 -93.20524,0c0,-7.76699 0,-15.53431 0,-23.3013z"/><path d="M441.76402,105.25328c0,6.65752 0,13.31503 0,19.97255c-27.73854,0 -55.48041,0 -83.21896,0c0,-6.65752 0,-13.31503 0,-19.97255c27.73854,0 55.48041,0 83.21896,0z"/><path d="M355.2163,151.8559c31.0673,0 62.13794,0 93.20524,0c0,7.76699 0,15.53432 0,23.30131c-31.0673,0 -62.13794,0 -93.20524,0c0,-7.76699 0,-15.53432 0,-23.30131z"/></g><path d="M524.98288,135.21209c-10.40237,-3.25886 -21.49713,-4.37065 -33.28759,-3.32876c0,14.42351 0,28.85035 0,43.27386c-7.76599,0 -15.53532,0 -23.30131,0c0,-22.19283 0,-44.38234 0,-66.57517c23.32794,0.55258 46.62925,0 69.90393,-1.66438c9.71331,-11.55745 8.60484,-21.54372 -3.32876,-29.95882c-22.16287,-1.66438 -44.35571,-2.21696 -66.57517,-1.66438c-0.85216,-7.62951 0,-21.63693 0,-21.63693c0,0 52.15166,-2.22028 76.56144,0c24.90244,10.54883 33.22433,28.85701 24.96569,54.92452c-4.56373,9.55687 -11.77382,16.21438 -21.63693,19.97255c12.38631,13.69451 21.26411,29.22983 26.63007,46.60262c-8.94438,0.54592 -17.82218,-0.00999 -26.63007,-1.66438c-8.22204,-12.57605 -15.98802,-25.33518 -23.3013,-38.28072z"/><g><path d="M728.03717,51.99315c7.62951,-0.85216 14.84294,0.25631 21.63693,3.32876c2.63971,13.05872 2.0838,25.81785 -1.66438,38.28072c-7.55295,2.5232 -14.76638,1.9673 -21.63693,-1.66437c-2.53652,-13.60464 -1.98394,-26.91967 1.66438,-39.9451z"/><path d="M728.03717,101.92452c7.62951,-0.85216 14.84294,0.25631 21.63693,3.32876c1.66438,23.27468 2.21696,46.57599 1.66438,69.90393c-8.8778,0 -17.75227,0 -26.63007,0c-0.98864,-24.69939 0.11983,-49.1125 3.32876,-73.23268z"/></g><g><path d="M881.16005,51.99315c7.76599,0 15.53531,0 23.30131,0c-0.55258,26.65337 0,53.28343 1.66438,79.8902c3.4153,12.2931 11.18463,20.0591 23.30131,23.30131c1.64774,6.56764 2.20364,13.22516 1.66438,19.97255c-7.84588,0.54259 -15.61188,-0.00999 -23.30131,-1.66438c-7.68943,-1.65439 -19.08024,-9.97207 -21.63693,-21.63692c-2.55669,-11.66485 -6.308,-66.35547 -4.99314,-99.86275z"/><path d="M964.37901,51.99315c7.76599,0 15.53531,0 23.3013,0c0.55258,31.08728 5.66165,57.56706 -1.66438,93.20523c-2.88951,14.05632 -22.92516,30.33831 -44.93823,29.95883c0,-7.766 0,-15.53531 0,-23.30131c11.88366,-1.33483 19.09376,-7.99235 21.63693,-19.97255c1.66438,-26.60676 2.21695,-53.23683 1.66438,-79.8902z"/></g><g><path d="M864.51626,55.3219c0,6.65751 0,13.31503 0,19.97255c-29.95883,0 -59.91765,0 -89.87648,0c0,-6.65752 0,-13.31503 0,-19.97255c29.95883,0 59.91765,0 89.87648,0z"/><path d="M854.52998,125.22583c0,0 -39.9451,0 -59.91765,0c0,15.53432 0,50.76357 0,50.76357l-23.30131,-0.83219l3.32876,-71.56831h79.8902z"/></g><g><path d="M642.82095,48.66439c5.75706,-0.03958 1.63266,-0.26619 1.63266,-0.26619c0,0 5.63866,13.66539 2.02897,23.56749c-25.7546,10.47061 -34.6324,29.33368 -26.63006,56.58889c5.74877,11.29448 15.95806,17.7303 27.96157,21.96981c1.64774,6.56664 0.87214,14.55567 0.33288,21.30406c-28.86033,0.18574 -46.06003,-14.2391 -51.59576,-43.27386c-8.2753,-36.05045 7.36987,-72.00105 46.26974,-79.8902z"/><path d="M658.13324,48.66439c28.22122,2.20197 45.42091,16.62682 51.59576,43.27386c-9.32931,4.33704 -23.06993,-0.17901 -23.06993,-0.17901c0,0 -0.8807,-7.62692 -7.88753,-13.46891c-4.36511,-3.63945 -18.21072,-9.11171 -18.21072,-9.11171c0,0 -4.03289,-12.08246 -2.42758,-20.51424z"/><path d="M684.76331,128.55458c7.76599,0 15.53532,0 23.30131,0c-3.11239,29.72748 -19.75618,44.15199 -49.93137,43.27386c0,-7.76699 0,-15.53432 0,-23.30131c13.6113,-0.29326 22.48909,-6.95078 26.63006,-19.97255z"/></g></g><g><path d="M1147.16218,48.67843c0,0 47.46144,0.00133 70.73612,1.66438c26.87306,11.5195 33.53058,30.38258 19.97255,56.58889c9.42038,14.72144 12.19324,30.81065 8.3219,48.267c-5.1862,6.18783 -11.28782,11.18097 -18.30817,14.97941c-27.71857,1.66338 -83.21896,1.66438 -83.21896,1.66438l3.32876,-21.63693c0,0 46.60262,0.27729 69.90393,-0.83219c9.55687,-9.45434 8.44506,-21.38228 -3.32876,-27.46225c-23.01503,-0.61915 -68.23954,0.83219 -68.23954,0.83219l1.66438,-22.46912c0,0 44.38234,0.27729 66.57516,-0.83219c4.93322,-8.62748 3.82142,-18.89104 -3.32876,-25.79788c-22.16287,-1.66305 -64.0786,-1.66437 -64.0786,-1.66437z"/><g><path d="M1314.43228,52.00719c5.47248,-0.71236 10.46562,0.39945 14.97942,3.32876c1.64774,6.56764 2.20364,13.22516 1.66438,19.97255c-33.29424,9.42038 -42.72794,30.50474 -28.29444,63.24641c7.30662,8.08889 16.18442,13.63792 26.63007,16.64379c1.64774,6.56764 2.20364,13.22515 1.66438,19.97255c-44.85169,-5.52241 -64.26833,-31.044 -58.25327,-76.56144c6.41119,-22.48576 20.28212,-38.02108 41.60947,-46.60262z"/><path d="M1341.06236,52.00719c34.96195,4.99647 53.82602,24.96901 56.58889,59.91765c-1.38144,37.36864 -20.24551,58.453 -56.58889,63.24641c-1.02526,-8.06891 0.08655,-15.8349 3.32876,-23.3013c20.33539,-5.37261 29.21319,-18.68765 26.63007,-39.9451c0.67574,-20.90793 -9.31054,-32.00269 -29.95883,-33.28759c0,-8.8778 0,-17.75226 0,-26.63006z"/></g><path d="M1577.4042,55.33595l26.63007,3.32876c0,0 35.18797,79.23344 49.93137,119.8353c-41.05457,0 -82.10949,0 -123.16406,0c-1.31719,-8.4697 0.90209,-15.68212 6.65752,-21.63693c26.69897,-0.56056 81.55458,-1.66438 81.55458,-1.66438c0,0 -20.39929,-44.11803 -28.29444,-63.24641c-7.76699,15.53431 -23.30131,53.26013 -23.30131,53.26013c0,0 -15.23239,1.02392 -23.3013,0c9.76391,-30.39589 33.28758,-89.87647 33.28758,-89.87647z"/><g><path d="M1420.12041,55.33595h25.79788c0,0 2.22028,83.20232 1.66438,123.16406c-8.8778,0 -17.75227,0 -26.63007,0c-1.0419,-41.31987 -0.83219,-123.16406 -0.83219,-123.16406z"/><path d="M1457.56894,155.1987c15.57526,-0.55257 49.09919,0 49.09919,0c0,0 1.68435,15.6718 0.83219,23.30131c-16.64379,0 -33.28758,0 -49.93137,0c0,-7.766 0,-15.53531 0,-23.30131z"/></g><g><path d="M1727.19831,52.00721c7.76599,0 15.53532,0 23.30131,0c0.55257,32.19575 0,64.37486 -1.66438,96.53399c-4.74348,18.16171 -16.39414,27.0395 -34.95197,26.63007c-1.91071,-12.53943 1.97396,-22.52571 11.65066,-29.95882c1.66438,-31.04733 2.21695,-62.11796 1.66438,-93.20524z"/><path d="M1667.28066,135.22616c7.76599,0 15.53532,0 23.30131,0c-0.85216,8.02897 2.4766,13.578 9.98627,16.64379c3.24221,7.46641 4.35401,15.2324 3.32876,23.30131c-24.2733,-1.80086 -36.47986,-15.11589 -36.61634,-39.9451z"/></g><g><path d="M1783.78729,55.33595c7.62952,-0.85216 14.84293,0.25632 21.63693,3.32876c2.63971,13.05872 2.0838,25.81785 -1.66438,38.28072c-7.55296,2.5232 -14.76638,1.9673 -21.63693,-1.66438c-2.53652,-13.60464 -1.98394,-26.91967 1.66438,-39.9451z"/><path d="M1783.78729,105.26732c7.62952,-0.85216 14.84293,0.25632 21.63693,3.32876c1.66438,23.27468 2.21695,46.57599 1.66438,69.90393c-8.8778,0 -17.75227,0 -26.63007,0c-0.98864,-24.69939 0.11984,-49.1125 3.32876,-73.23269z"/></g></g></g></g></g></svg>