<svg version="1.1" xmlns="http://www.w3.org/2000/svg" xmlns:xlink="http://www.w3.org/1999/xlink" width="255.53319" height="288.15267" viewBox="0,0,255.53319,288.15267"><defs><linearGradient x1="305.07074" y1="175.05159" x2="256.10238" y2="175.05159" gradientUnits="userSpaceOnUse" id="color-1"><stop offset="0" stop-color="#c7c7c7"/><stop offset="1" stop-color="#ffffff"/></linearGradient><radialGradient cx="278.87279" cy="174.824" r="12.37522" gradientUnits="userSpaceOnUse" id="color-2"><stop offset="0" stop-color="#b07352"/><stop offset="1" stop-color="#72421e"/></radialGradient><radialGradient cx="273.58907" cy="180.45838" r="2.52426" gradientUnits="userSpaceOnUse" id="color-3"><stop offset="0" stop-color="#ffffff"/><stop offset="1" stop-color="#ffffff" stop-opacity="0"/></radialGradient><radialGradient cx="271.54272" cy="178.83479" r="1.9711" gradientUnits="userSpaceOnUse" id="color-4"><stop offset="0" stop-color="#ffffff"/><stop offset="1" stop-color="#ffffff" stop-opacity="0"/></radialGradient><linearGradient x1="280.1698" y1="167.36722" x2="280.1698" y2="173.48823" gradientUnits="userSpaceOnUse" id="color-5"><stop offset="0" stop-color="#774622"/><stop offset="1" stop-color="#774622" stop-opacity="0"/></linearGradient><linearGradient x1="174.61782" y1="175.6221" x2="223.58621" y2="175.6221" gradientUnits="userSpaceOnUse" id="color-6"><stop offset="0" stop-color="#c7c7c7"/><stop offset="1" stop-color="#ffffff"/></linearGradient><radialGradient cx="200.8158" cy="175.3945" r="12.37522" gradientUnits="userSpaceOnUse" id="color-7"><stop offset="0" stop-color="#b07352"/><stop offset="1" stop-color="#72421e"/></radialGradient><radialGradient cx="195.53232" cy="181.02888" r="2.52426" gradientUnits="userSpaceOnUse" id="color-8"><stop offset="0" stop-color="#ffffff"/><stop offset="1" stop-color="#ffffff" stop-opacity="0"/></radialGradient><radialGradient cx="193.48571" cy="179.40528" r="1.9711" gradientUnits="userSpaceOnUse" id="color-9"><stop offset="0" stop-color="#ffffff"/><stop offset="1" stop-color="#ffffff" stop-opacity="0"/></radialGradient><linearGradient x1="199.51863" y1="167.93772" x2="199.51863" y2="174.05873" gradientUnits="userSpaceOnUse" id="color-10"><stop offset="0" stop-color="#774622"/><stop offset="1" stop-color="#774622" stop-opacity="0"/></linearGradient><linearGradient x1="151.45284" y1="96.0094" x2="151.45284" y2="187.1131" gradientUnits="userSpaceOnUse" id="color-11"><stop offset="0" stop-color="#000000"/><stop offset="1" stop-color="#000000" stop-opacity="0"/></linearGradient><linearGradient x1="328.51207" y1="96.86516" x2="328.51207" y2="187.96886" gradientUnits="userSpaceOnUse" id="color-12"><stop offset="0" stop-color="#000000"/><stop offset="1" stop-color="#000000" stop-opacity="0"/></linearGradient></defs><g transform="translate(-112.23341,-35.92367)"><g data-paper-data="{&quot;isPaintingLayer&quot;:true}" fill-rule="nonzero" stroke-linecap="butt" stroke-linejoin="miter" stroke-miterlimit="10" stroke-dasharray="" stroke-dashoffset="0" style="mix-blend-mode: normal"><g fill="#a66745" stroke-width="0"><g><path d="M243.12915,323.84483c-17.07831,-1.06557 -11.23098,2.50367 -22.48587,-2.61398c-13.89096,-6.31626 -61.44815,-58.82857 -68.48549,-76.17537c-7.03732,-17.34677 -12.486,-86.5413 -11.45399,-115.88988c2.00613,-57.05122 35.3732,-85.61036 98.87112,-87.88998c31.56228,-1.13313 23.7543,283.82958 3.55423,282.5692z" data-paper-data="{&quot;index&quot;:null,&quot;origRot&quot;:0}" stroke="#000000"/><path d="M113.16315,206.2144c-2.93533,-20.37751 0.8645,-38.48109 14.48085,-40.44246c13.61635,-1.96138 31.89286,12.96215 34.82819,33.33967c2.93528,20.37751 -4.23814,41.74395 -17.85449,43.70534c-13.61635,1.96138 -28.51922,-16.22507 -31.45453,-36.60259z" stroke="none"/></g><g data-paper-data="{&quot;index&quot;:null}"><path d="M236.87061,323.84479c-20.20007,1.26038 -28.00807,-283.70231 3.55423,-282.5692c63.49794,2.27964 96.86499,30.83876 98.87118,87.88998c1.03201,29.34857 -4.41671,98.54311 -11.45403,115.88988c-7.03732,17.3468 -54.59456,69.85912 -68.48552,76.17537c-11.2549,5.11768 -5.40756,1.54844 -22.48583,2.61398z" data-paper-data="{&quot;index&quot;:null,&quot;origRot&quot;:0}" stroke="#000000"/><path d="M335.38232,242.817c-13.61631,-1.96138 -20.78979,-23.32782 -17.85449,-43.70534c2.93528,-20.37751 21.21185,-35.30109 34.82819,-33.33967c13.61631,1.96138 17.41613,20.06494 14.48085,40.44246c-2.93528,20.37751 -17.83819,38.56397 -31.4545,36.60259z" stroke="none"/></g></g><g stroke="none"><path d="M264.75514,186.14693c0,0 -4.10307,-2.46761 -6.16307,-6.91782c-1.5002,-3.24083 -2.48973,-8.46493 -2.48973,-8.46493c0,0 14.71622,-6.80075 22.69699,-7.12255c7.91414,-0.31912 26.27141,8.40446 26.27141,8.40446c0,0 -0.38017,5.0252 -11.60114,12.37026c-4.83029,3.16189 -28.71441,1.73054 -28.71441,1.73054z" fill="url(#color-1)" stroke-width="0"/><g><g stroke-width="0"><path d="M265.70551,174.824c0,-7.27207 5.89517,-13.16724 13.16724,-13.16724c7.27207,0 13.16728,5.89517 13.16728,13.16724c0,7.27207 -5.89522,13.16724 -13.16728,13.16724c-7.27207,0 -13.16724,-5.89517 -13.16724,-13.16724z" fill="#3b2616"/><path d="M266.49757,174.824c0,-6.83465 5.5406,-12.37522 12.37522,-12.37522c6.83465,0 12.37522,5.5406 12.37522,12.37522c0,6.83465 -5.5406,12.37522 -12.37522,12.37522c-6.83465,0 -12.37522,-5.5406 -12.37522,-12.37522z" fill="url(#color-2)"/></g><g><g stroke-width="0"><path d="M269.62536,175.90095c0,-5.19896 4.21462,-9.41354 9.41354,-9.41354c5.19896,0 9.41354,4.21458 9.41354,9.41354c0,5.19896 -4.21458,9.41358 -9.41354,9.41358c-5.19896,0 -9.41354,-4.21462 -9.41354,-9.41358z" fill="#6e4f37"/><path d="M271.61883,175.45796c0,-4.09802 3.3221,-7.42012 7.42008,-7.42012c4.09798,0 7.42012,3.3221 7.42012,7.42012c0,4.09802 -3.3221,7.42008 -7.42012,7.42008c-4.09798,0 -7.42008,-3.32206 -7.42008,-7.42008z" fill="#552c0e"/><path d="M273.61226,175.1257c0,-3.05822 2.47915,-5.53738 5.53734,-5.53738c3.05826,0 5.53738,2.47915 5.53738,5.53738c0,3.05822 -2.47921,5.53742 -5.53738,5.53742c-3.05826,0 -5.53734,-2.47915 -5.53734,-5.53742z" fill="#000000"/></g><g><path d="M289.65579,177.42344c-0.09697,0.20445 -0.25446,1.43743 -1.50191,1.58207c-1.335,0.15476 -3.00597,-1.09188 -3.99944,-1.46498c-0.05074,-0.01737 -0.10056,-0.03672 -0.14933,-0.05798c-0.69993,-0.30529 -1.18922,-1.00339 -1.18922,-1.81577c0,-1.09355 0.88649,-1.98004 1.98008,-1.98004c1.55519,-0.29028 5.85368,1.64112 4.85983,3.73677z" fill="#ffffff" stroke-width="0.5"/><g stroke-width="0"><path d="M274.69972,181.77326c-1.2516,0.81953 -2.76345,0.89514 -3.37673,0.16897c-0.61328,-0.72616 -0.09584,-1.97914 1.15576,-2.79867c1.2516,-0.81953 2.76341,-0.89518 3.37669,-0.16902c0.61328,0.72616 0.09588,1.97918 -1.15576,2.79871z" fill="url(#color-3)"/><path d="M274.37633,181.52395c-0.97661,0.63943 -2.15623,0.69847 -2.63478,0.13187c-0.47855,-0.5666 -0.07479,-1.54432 0.9018,-2.1838c0.97661,-0.63943 2.15629,-0.69847 2.63483,-0.13187c0.47855,0.5666 0.07475,1.54432 -0.90186,2.18374z" fill="#ffffff"/></g><g stroke-width="0"><path d="M273.44992,177.66926c0.27389,0.44824 -0.35788,1.33337 -1.41121,1.97708c-1.05333,0.64367 -2.12924,0.80216 -2.40317,0.35395c-0.27389,-0.44824 0.35792,-1.33337 1.41125,-1.97708c1.05333,-0.64367 2.12924,-0.8022 2.40313,-0.35395z" fill="url(#color-4)"/><path d="M273.27633,177.94344c0.22811,0.37325 -0.29801,1.11032 -1.17515,1.64632c-0.87712,0.536 -1.77306,0.66797 -2.00117,0.29472c-0.22811,-0.37325 0.29801,-1.11032 1.17515,-1.64632c0.87712,-0.536 1.77306,-0.66797 2.00117,-0.29472z" fill="#ffffff"/></g></g></g></g><g><g stroke-width="0"><path d="M282.25291,166.72624c-10.07003,0.27319 -27.06397,2.11511 -27.06397,2.11511v-12.69075h50.76304v12.69075c0,0 -15.92081,-2.32619 -23.69905,-2.11511z" fill="#a66745"/><g><g><g><path d="M261.40909,187.08605v-1.02552l34.99576,0.32049l0.25639,0.51274z" fill="#000000"/><path d="M259.79318,194.79306v-7.88633h38.75199v7.88633z" fill="#a66745"/></g></g></g></g><g><path d="M280.52572,170.91264c-7.58562,0.06936 -23.49409,2.5756 -23.49409,2.5756l-1.02555,-4.239c0,0 16.26868,-3.29 21.21827,-3.40224c8.92921,-0.20239 25.57088,4.01984 25.57088,4.01984l-0.1282,3.20404c0,0 -19.01933,-2.18683 -22.14135,-2.15825z" fill="url(#color-5)" stroke-width="0"/><path d="M305.16685,176.99876c-1.92373,1.57855 -7.14973,4.39758 -7.14973,4.39758c0,0 3.44499,-2.83011 4.38834,-4.43348c0.68534,-1.16484 1.77499,-3.65769 1.77499,-3.65769c0,0 1.43683,-0.18502 2.1203,-0.07013c0.43576,0.07325 1.58317,0.43632 1.58317,0.43632c0,0 -1.28626,2.15333 -2.71707,3.32745z" fill="#000000" stroke-width="0.5"/><path d="M247.96809,173.51451c0,0 10.02066,-6.33508 11.16341,-6.73233c2.34309,-0.88311 14.93385,-2.33128 22.48052,-2.33128c2.04311,0 10.15519,0.56441 17.00075,2.30895c6.13039,1.56229 9.24607,7.14503 9.24607,7.14503l-3.68545,-0.22438c0,0 -4.43608,-7.21057 -27.88672,-6.68309c-15.13295,0.34038 -28.31858,6.51706 -28.31858,6.51706z" fill="#000000" stroke-width="0.5"/></g></g></g><path d="M257.12369,228.90133c0.95679,0.47841 0.47838,1.43517 0.47838,1.43517l-0.73523,1.34771c-0.47226,0.25558 -0.94451,0.51119 -1.41677,0.76677c-6.16209,2.06102 -30.66993,9.62645 -31.43097,-4.19742c0,0 0,-1.0697 1.0697,-1.0697c1.0697,0 1.0697,1.0697 1.0697,1.0697c-0.26251,2.12868 5.36326,4.38778 7.14866,4.82966c8.91326,2.20596 12.81544,0.21737 21.32416,-2.60882c0.24089,-0.10097 0.4818,-0.202 0.72269,-0.30299l0.33447,-0.79168c0,0 0.47838,-0.95679 1.43517,-0.47841z" fill="#000000" stroke="none" stroke-width="0.5"/><g stroke="#000000"><path d="M197.64736,260.70479c0,0 1.94152,-11.21348 7.31772,-12.07382c5.37607,-0.86044 16.15182,6.30072 35.12733,6.28725c21.4512,-0.0152 31.34795,-7.71369 40.585,-5.42519c3.79336,0.9398 4.3877,12.57676 4.3877,12.57676l-6.21203,2.54659l4.31222,-0.88657c0,0 -5.95272,6.73815 -11.32139,9.09601c-6.86882,3.01675 -31.13526,8.08127 -57.12225,1.53777c-8.36878,-3.51259 -15.13734,-11.22935 -15.13734,-11.22935l6.91556,1.01281z" data-paper-data="{&quot;origPos&quot;:null,&quot;index&quot;:null}" fill="#ffffff" stroke-width="0.5"/><path d="M278.17812,264.14249c1.62822,-0.6975 4.44909,-1.73743 4.44909,-1.73743l-0.57328,2.76491c0,0 -2.70599,0.42343 -4.79911,0.99604c-4.17769,1.14284 -7.07614,0.51334 -7.07614,0.51334c0,0 3.11491,-0.44431 7.99946,-2.53684z" data-paper-data="{&quot;origPos&quot;:null,&quot;origRot&quot;:0}" fill="#000000" stroke-width="0"/><path d="M225.88545,268.06153c0,0 -14.50943,-1.85852 -18.68708,-3.0014c-2.09316,-0.57259 -4.79906,-0.99608 -4.79906,-0.99608l-2.78493,-3.31781c0,0 5.03252,1.59285 6.6607,2.29033c4.88455,2.09252 19.61045,5.0249 19.61045,5.0249z" data-paper-data="{&quot;origPos&quot;:null,&quot;origRot&quot;:0,&quot;index&quot;:null}" fill="#000000" stroke-width="0"/></g><g stroke="none"><path d="M214.93342,186.71739c0,0 -23.88411,1.43135 -28.71441,-1.73054c-11.22096,-7.34506 -11.60114,-12.37026 -11.60114,-12.37026c0,0 18.35725,-8.72358 26.27141,-8.40446c7.98077,0.32182 22.69699,7.12255 22.69699,7.12255c0,0 -0.98952,5.22407 -2.48973,8.46493c-2.06001,4.45021 -6.16307,6.91782 -6.16307,6.91782z" fill="url(#color-6)" stroke-width="0"/><g><g data-paper-data="{&quot;index&quot;:null}" stroke-width="0"><path d="M187.6486,175.3945c0,-7.27207 5.89517,-13.16724 13.16724,-13.16724c7.27207,0 13.16728,5.89517 13.16728,13.16724c0,7.27207 -5.89522,13.16724 -13.16728,13.16724c-7.27207,0 -13.16724,-5.89517 -13.16724,-13.16724z" fill="#3b2616"/><path d="M188.44052,175.3945c0,-6.83465 5.5406,-12.37522 12.37522,-12.37522c6.83465,0 12.37522,5.5406 12.37522,12.37522c0,6.83465 -5.5406,12.37522 -12.37522,12.37522c-6.83465,0 -12.37522,-5.5406 -12.37522,-12.37522z" fill="url(#color-7)"/></g><g data-paper-data="{&quot;index&quot;:null}"><g stroke-width="0"><path d="M191.56844,176.47144c0,-5.19896 4.21462,-9.41354 9.41354,-9.41354c5.19896,0 9.41354,4.21458 9.41354,9.41354c0,5.19896 -4.21462,9.41358 -9.41354,9.41358c-5.19896,0 -9.41354,-4.21462 -9.41354,-9.41358z" fill="#6e4f37"/><path d="M193.56187,176.02846c0,-4.09802 3.3221,-7.42012 7.42008,-7.42012c4.09798,0 7.42012,3.3221 7.42012,7.42012c0,4.09802 -3.3221,7.42008 -7.42012,7.42008c-4.09798,0 -7.42008,-3.32206 -7.42008,-7.42008z" fill="#552c0e"/><path d="M195.55535,175.6962c0,-3.05822 2.47915,-5.53738 5.53734,-5.53738c3.05826,0 5.53738,2.47915 5.53738,5.53738c0,3.05822 -2.47921,5.53738 -5.53738,5.53738c-3.05826,0 -5.53734,-2.47915 -5.53734,-5.53738z" fill="#000000"/></g><g><path d="M211.59898,177.99394c-0.09697,0.20445 -0.25446,1.43743 -1.50191,1.58207c-1.335,0.15476 -3.00597,-1.09188 -3.99944,-1.46498c-0.05074,-0.01737 -0.10056,-0.03672 -0.14933,-0.05798c-0.69993,-0.30529 -1.18922,-1.00339 -1.18922,-1.81577c0,-1.09355 0.88649,-1.98004 1.98008,-1.98004c1.55519,-0.29028 5.85368,1.64112 4.85983,3.73677z" fill="#ffffff" stroke-width="0.5"/><g stroke-width="0"><path d="M196.64274,182.34378c-1.2516,0.81953 -2.76345,0.89514 -3.37673,0.16897c-0.61328,-0.72616 -0.09584,-1.97914 1.15576,-2.79867c1.2516,-0.81953 2.76341,-0.89518 3.37669,-0.16902c0.61328,0.72616 0.09588,1.97918 -1.15576,2.79871z" fill="url(#color-8)"/><path d="M196.31933,182.09445c-0.97661,0.63943 -2.15623,0.69847 -2.63478,0.13187c-0.47855,-0.5666 -0.07479,-1.54432 0.9018,-2.1838c0.97661,-0.63943 2.15629,-0.69847 2.63483,-0.13187c0.47855,0.5666 0.07475,1.54432 -0.90186,2.18374z" fill="#ffffff"/></g><g stroke-width="0"><path d="M195.39287,178.23975c0.27389,0.44824 -0.35788,1.33337 -1.41121,1.97708c-1.05333,0.64367 -2.12924,0.80216 -2.40317,0.35395c-0.27389,-0.44824 0.35792,-1.33337 1.41125,-1.97708c1.05333,-0.64367 2.12924,-0.8022 2.40313,-0.35395z" fill="url(#color-9)"/><path d="M195.21932,178.51394c0.22811,0.37325 -0.29801,1.11032 -1.17515,1.64632c-0.87712,0.536 -1.77306,0.66797 -2.00117,0.29472c-0.22811,-0.37325 0.29801,-1.11032 1.17515,-1.64632c0.87712,-0.536 1.77306,-0.66797 2.00117,-0.29472z" fill="#ffffff"/></g></g></g></g><g><g stroke-width="0"><path d="M173.73654,169.41187v-12.69075h50.76304v12.69075c0,0 -16.99394,-1.84192 -27.06397,-2.11511c-7.77824,-0.21108 -23.69905,2.11511 -23.69905,2.11511z" fill="#a66745"/><g><g><g><path d="M183.02732,187.46426l0.25639,-0.51274l34.99576,-0.32049v1.02552z" fill="#000000"/><path d="M181.14335,195.36356v-7.88633h38.75199v7.88633z" fill="#a66745"/></g></g></g></g><g><path d="M199.16284,171.48313c-3.12201,-0.02858 -22.14135,2.15825 -22.14135,2.15825l-0.1282,-3.20404c0,0 16.64167,-4.22223 25.57088,-4.01984c4.94959,0.11224 21.21827,3.40224 21.21827,3.40224l-1.02555,4.239c0,0 -15.90847,-2.50626 -23.49409,-2.5756z" fill="url(#color-10)" stroke-width="0"/><path d="M174.52171,177.56931c-1.43081,-1.17412 -2.71707,-3.32745 -2.71707,-3.32745c0,0 1.14741,-0.36307 1.58317,-0.43632c0.68346,-0.11488 2.1203,0.07013 2.1203,0.07013c0,0 1.08965,2.49285 1.77499,3.65769c0.94335,1.60337 4.38834,4.43348 4.38834,4.43348c0,0 -5.226,-2.81903 -7.14973,-4.39758z" fill="#000000" stroke-width="0.5"/><path d="M231.7205,174.08497c0,0 -13.18564,-6.17667 -28.31858,-6.51706c-23.45062,-0.52749 -27.88672,6.68309 -27.88672,6.68309l-3.68545,0.22438c0,0 3.11568,-5.58273 9.24607,-7.14503c6.84556,-1.74452 14.95763,-2.30895 17.00075,-2.30895c7.54667,0 20.13743,1.44817 22.48052,2.33128c1.14275,0.39724 11.16341,6.73233 11.16341,6.73233z" fill="#000000" stroke-width="0.5"/></g></g></g><path d="M282.48541,143.60703c-13.44014,0.73228 -28.65994,7.43937 -28.65994,7.43937l0.20157,-7.62268c0,0 20.43896,-7.01675 28.32218,-7.48789c15.16901,-0.90656 33.9746,13.49217 33.9746,13.49217c0,0 -23.96854,-6.3588 -33.83841,-5.82098z" data-paper-data="{&quot;index&quot;:null}" fill="#000000" stroke="none" stroke-width="0"/><path d="M161.83032,148.71486c0,0 18.80559,-14.39872 33.9746,-13.49217c7.88322,0.47115 28.32218,7.48789 28.32218,7.48789l0.20157,7.62268c0,0 -15.21981,-6.70708 -28.65994,-7.43937c-9.86989,-0.5378 -33.83841,5.82098 -33.83841,5.82098z" data-paper-data="{&quot;index&quot;:null}" fill="#000000" stroke="none" stroke-width="0"/><g stroke-width="0"><g fill="#000000" stroke="#000000"><path d="M240.64472,35.92704c9.50309,-0.34115 15.43708,25.25385 18.53825,61.16327c-27.5272,-1.41261 -112.89143,0.9149 -114.82476,1.21956c9.33469,-40.12365 44.03575,-60.50699 96.28645,-62.38284z" data-paper-data="{&quot;index&quot;:null,&quot;origRot&quot;:0}"/><path d="M240.16604,35.92709c54.26458,1.94815 85.09766,25.22823 95.29726,63.37655c-16.28635,-1.75193 -95.83366,-2.12937 -113.67254,-2.63584c3.14396,-34.93577 9.0361,-61.07589 18.37528,-60.74062z" data-paper-data="{&quot;index&quot;:null,&quot;origRot&quot;:0}"/></g><path d="M145.94075,187.1131l-4.65034,-19.72093l-1.01986,-19.52821c0,0 -1.17904,-9.29351 -0.2145,-23.31917c0.96454,-14.02566 4.77929,-28.53539 4.77929,-28.53539h17.82853c0,0 0.6147,31.95696 0.45333,32.98594c-8.13207,3.03049 -13.76295,10.89218 -14.45893,20.05386c-2.24639,9.60755 -2.71754,38.0639 -2.71754,38.0639z" fill="url(#color-11)" stroke="none"/><path d="M331.30667,149.90496c-0.69604,-9.16174 -6.3269,-17.02338 -14.45897,-20.05386c-0.16135,-1.02898 0.45333,-32.98594 0.45333,-32.98594h17.82853c0,0 3.81475,14.50973 4.77929,28.53539c0.96454,14.02566 -0.2145,23.31917 -0.2145,23.31917l-1.01986,19.52821l-4.65034,19.72093c0,0 -0.47115,-28.45631 -2.71754,-38.0639z" data-paper-data="{&quot;index&quot;:null}" fill="url(#color-12)" stroke="none"/></g></g></g></svg>