<svg width="4124" height="771" xmlns="http://www.w3.org/2000/svg" xmlns:xlink="http://www.w3.org/1999/xlink" xml:space="preserve" overflow="hidden"><defs><clipPath id="clip0"><rect x="352" y="394" width="4124" height="771"/></clipPath><clipPath id="clip1"><rect x="352" y="414" width="555" height="625"/></clipPath><clipPath id="clip2"><rect x="352" y="414" width="555" height="625"/></clipPath><clipPath id="clip3"><rect x="352" y="414" width="555" height="625"/></clipPath><linearGradient x1="659.578" y1="378.47" x2="553.706" y2="378.47" gradientUnits="userSpaceOnUse" spreadMethod="pad" id="fill4"><stop offset="0" stop-color="#C7C7C7"/><stop offset="1" stop-color="#FFFFFF"/></linearGradient><radialGradient cx="278.873" cy="174.824" r="12.3752" gradientUnits="userSpaceOnUse" spreadMethod="pad" id="fill5" gradientTransform="scale(2.16205 2.16205)"><stop offset="0" stop-color="#B07352"/><stop offset="1" stop-color="#72421E"/></radialGradient><radialGradient cx="273.589" cy="180.458" r="2.52426" gradientUnits="userSpaceOnUse" spreadMethod="pad" id="fill6" gradientTransform="scale(2.16205 2.16205)"><stop offset="0" stop-color="#FFFFFF"/><stop offset="1" stop-color="#FFFFFF" stop-opacity="0"/></radialGradient><radialGradient cx="271.543" cy="178.835" r="1.9711" gradientUnits="userSpaceOnUse" spreadMethod="pad" id="fill7" gradientTransform="scale(2.16205 2.16205)"><stop offset="0" stop-color="#FFFFFF"/><stop offset="1" stop-color="#FFFFFF" stop-opacity="0"/></radialGradient><linearGradient x1="605.741" y1="361.856" x2="605.741" y2="375.09" gradientUnits="userSpaceOnUse" spreadMethod="pad" id="fill8"><stop offset="0" stop-color="#774622"/><stop offset="1" stop-color="#774622" stop-opacity="0"/></linearGradient><linearGradient x1="377.532" y1="379.704" x2="483.404" y2="379.704" gradientUnits="userSpaceOnUse" spreadMethod="pad" id="fill9"><stop offset="0" stop-color="#C7C7C7"/><stop offset="1" stop-color="#FFFFFF"/></linearGradient><radialGradient cx="200.816" cy="175.395" r="12.3752" gradientUnits="userSpaceOnUse" spreadMethod="pad" id="fill10" gradientTransform="scale(2.16205 2.16205)"><stop offset="0" stop-color="#B07352"/><stop offset="1" stop-color="#72421E"/></radialGradient><radialGradient cx="195.532" cy="181.029" r="2.52426" gradientUnits="userSpaceOnUse" spreadMethod="pad" id="fill11" gradientTransform="scale(2.16205 2.16205)"><stop offset="0" stop-color="#FFFFFF"/><stop offset="1" stop-color="#FFFFFF" stop-opacity="0"/></radialGradient><radialGradient cx="193.486" cy="179.405" r="1.9711" gradientUnits="userSpaceOnUse" spreadMethod="pad" id="fill12" gradientTransform="scale(2.16205 2.16205)"><stop offset="0" stop-color="#FFFFFF"/><stop offset="1" stop-color="#FFFFFF" stop-opacity="0"/></radialGradient><linearGradient x1="431.369" y1="363.09" x2="431.369" y2="376.324" gradientUnits="userSpaceOnUse" spreadMethod="pad" id="fill13"><stop offset="0" stop-color="#774622"/><stop offset="1" stop-color="#774622" stop-opacity="0"/></linearGradient><linearGradient x1="327.448" y1="207.577" x2="327.448" y2="404.548" gradientUnits="userSpaceOnUse" spreadMethod="pad" id="fill14"><stop offset="0"/><stop offset="1" stop-color="#000000" stop-opacity="0"/></linearGradient><linearGradient x1="710.259" y1="209.427" x2="710.259" y2="406.398" gradientUnits="userSpaceOnUse" spreadMethod="pad" id="fill15"><stop offset="0"/><stop offset="1" stop-color="#000000" stop-opacity="0"/></linearGradient></defs><g clip-path="url(#clip0)" transform="translate(-352 -394)"><g clip-path="url(#clip1)"><g clip-path="url(#clip2)"><g clip-path="url(#clip3)"><path d="M525.657 700.168C488.733 697.865 501.375 705.581 477.042 694.517 447.009 680.861 344.188 567.327 328.973 529.822 313.758 492.317 301.977 342.715 304.208 279.262 308.546 155.915 380.687 94.1686 517.973 89.2399 586.212 86.79 569.331 702.893 525.657 700.168Z" fill="#A66745" transform="matrix(1.0004 0 0 1 109.9 337.331)"/><path d="M244.664 445.846C238.318 401.788 246.533 362.648 275.973 358.407 305.412 354.166 344.927 386.432 351.273 430.489 357.619 474.546 342.11 520.742 312.671 524.982 283.231 529.223 251.011 489.903 244.664 445.846Z" fill="#A66745" transform="matrix(1.0004 0 0 1 109.9 337.331)"/><path d="M512.126 700.168C468.452 702.893 451.571 86.79 519.81 89.2398 657.096 94.1685 729.237 155.915 733.575 279.262 735.806 342.715 724.025 492.317 708.81 529.822 693.595 567.327 590.774 680.861 560.741 694.517 536.408 705.581 549.05 697.865 512.126 700.168Z" fill="#A66745" transform="matrix(1.0004 0 0 1 109.9 337.331)"/><path d="M725.113 524.982C695.674 520.742 680.164 474.546 686.511 430.489 692.857 386.432 732.372 354.167 761.811 358.407 791.25 362.648 799.466 401.789 793.119 445.846 786.773 489.903 754.552 529.223 725.113 524.982Z" fill="#A66745" transform="matrix(1.0004 0 0 1 109.9 337.331)"/><path d="M572.414 402.459C572.414 402.459 563.543 397.124 559.089 387.502 555.845 380.495 553.706 369.201 553.706 369.201 553.706 369.201 585.523 354.497 602.778 353.801 619.889 353.111 659.578 371.972 659.578 371.972 659.578 371.972 658.756 382.837 634.496 398.717 624.052 405.553 572.414 402.459 572.414 402.459Z" fill="url(#fill4)" transform="matrix(1.0004 0 0 1 109.9 337.331)"/><path d="M574.468 377.978C574.468 362.255 587.214 349.51 602.937 349.51 618.659 349.51 631.405 362.255 631.405 377.978 631.405 393.701 618.659 406.446 602.937 406.446 587.214 406.446 574.468 393.701 574.468 377.978Z" fill="#3B2616" transform="matrix(1.0004 0 0 1 109.9 337.331)"/><path d="M576.181 377.978C576.181 363.201 588.16 351.222 602.937 351.222 617.714 351.222 629.693 363.201 629.693 377.978 629.693 392.755 617.713 404.734 602.937 404.734 588.16 404.734 576.181 392.755 576.181 377.978Z" fill="url(#fill5)" transform="matrix(1.0004 0 0 1 109.9 337.331)"/><path d="M582.943 380.306C582.943 369.066 592.055 359.954 603.296 359.954 614.536 359.954 623.648 369.066 623.648 380.306 623.648 391.547 614.536 400.659 603.296 400.659 592.055 400.659 582.943 391.547 582.943 380.306Z" fill="#6E4F37" transform="matrix(1.0004 0 0 1 109.9 337.331)"/><path d="M587.253 379.349C587.253 370.489 594.436 363.306 603.296 363.306 612.156 363.306 619.338 370.489 619.338 379.349 619.338 388.209 612.156 395.391 603.296 395.391 594.436 395.391 587.253 388.209 587.253 379.349Z" fill="#552C0E" transform="matrix(1.0004 0 0 1 109.9 337.331)"/><path d="M591.563 378.63C591.563 372.018 596.923 366.658 603.535 366.658 610.147 366.658 615.507 372.018 615.507 378.63 615.507 385.242 610.147 390.603 603.535 390.603 596.923 390.603 591.563 385.242 591.563 378.63Z" transform="matrix(1.0004 0 0 1 109.9 337.331)"/><path d="M626.25 383.598C626.04 384.04 625.7 386.706 623.003 387.019 620.116 387.353 616.504 384.658 614.356 383.851 614.246 383.814 614.138 383.772 614.033 383.726 612.52 383.066 611.462 381.557 611.462 379.8 611.462 377.436 613.378 375.519 615.743 375.519 619.105 374.892 628.399 379.067 626.25 383.598Z" fill="#FFFFFF" transform="matrix(1.0004 0 0 1 109.9 337.331)"/><path d="M593.914 393.003C591.208 394.775 587.94 394.938 586.614 393.368 585.288 391.798 586.406 389.089 589.112 387.317 591.818 385.545 595.087 385.382 596.413 386.952 597.739 388.522 596.62 391.231 593.914 393.003Z" fill="url(#fill6)" transform="matrix(1.0004 0 0 1 109.9 337.331)"/><path d="M593.215 392.464C591.104 393.846 588.553 393.974 587.519 392.749 586.484 391.524 587.357 389.41 589.468 388.027 591.58 386.645 594.13 386.517 595.165 387.742 596.2 388.967 595.327 391.081 593.215 392.464Z" fill="#FFFFFF" transform="matrix(1.0004 0 0 1 109.9 337.331)"/><path d="M591.212 384.13C591.804 385.099 590.438 387.012 588.161 388.404 585.884 389.796 583.558 390.139 582.965 389.169 582.373 388.2 583.739 386.287 586.016 384.895 588.294 383.503 590.62 383.161 591.212 384.13Z" fill="url(#fill7)" transform="matrix(1.0004 0 0 1 109.9 337.331)"/><path d="M590.837 384.722C591.33 385.529 590.193 387.123 588.296 388.282 586.4 389.441 584.463 389.726 583.969 388.919 583.476 388.112 584.614 386.518 586.51 385.36 588.407 384.201 590.344 383.915 590.837 384.722Z" fill="#FFFFFF" transform="matrix(1.0004 0 0 1 109.9 337.331)"/><path d="M610.245 360.47C588.473 361.061 551.731 365.043 551.731 365.043L551.731 337.605 661.483 337.605 661.483 365.043C661.483 365.043 627.062 360.014 610.245 360.47Z" fill="#A66745" transform="matrix(1.0004 0 0 1 109.9 337.331)"/><path d="M565.179 404.489 565.179 402.272 640.842 402.965 641.396 404.073Z" transform="matrix(1.0004 0 0 1 109.9 337.331)"/><path d="M561.686 421.152 561.686 404.102 645.469 404.102 645.469 421.152Z" fill="#A66745" transform="matrix(1.0004 0 0 1 109.9 337.331)"/><path d="M606.51 369.522C590.11 369.671 555.715 375.09 555.715 375.09L553.498 365.925C553.498 365.925 588.671 358.812 599.373 358.569 618.678 358.132 654.658 367.26 654.658 367.26L654.381 374.188C654.381 374.188 613.26 369.46 606.51 369.521Z" fill="url(#fill8)" transform="matrix(1.0004 0 0 1 109.9 337.331)"/><path d="M659.786 382.68C655.627 386.093 644.328 392.188 644.328 392.188 644.328 392.188 651.776 386.069 653.815 382.602 655.297 380.084 657.653 374.694 657.653 374.694 657.653 374.694 660.76 374.294 662.237 374.543 663.179 374.701 665.66 375.486 665.66 375.486 665.66 375.486 662.879 380.142 659.786 382.68Z" transform="matrix(1.0004 0 0 1 109.9 337.331)"/><path d="M536.119 375.147C536.119 375.147 557.784 361.45 560.255 360.591 565.321 358.682 592.543 355.551 608.859 355.551 613.276 355.551 630.815 356.771 645.615 360.543 658.87 363.921 665.606 375.991 665.606 375.991L657.638 375.506C657.638 375.506 648.047 359.916 597.345 361.057 564.627 361.793 536.119 375.147 536.119 375.147Z" transform="matrix(1.0004 0 0 1 109.9 337.331)"/><path d="M555.914 494.896C557.983 495.93 556.948 497.999 556.948 497.999L555.359 500.913C554.338 501.465 553.317 502.018 552.296 502.57 538.973 507.026 485.986 523.383 484.34 493.495 484.34 493.495 484.34 491.183 486.653 491.183 488.966 491.183 488.966 493.495 488.966 493.495 488.398 498.098 500.561 502.982 504.422 503.937 523.692 508.707 532.129 504.407 550.525 498.297 551.046 498.079 551.567 497.86 552.088 497.642L552.811 495.93C552.811 495.93 553.845 493.862 555.914 494.896Z" transform="matrix(1.0004 0 0 1 109.9 337.331)"/><path d="M427.323 563.657C427.323 563.657 431.521 539.412 443.145 537.552 454.768 535.692 478.066 551.175 519.092 551.146 565.47 551.113 586.867 534.468 606.838 539.416 615.04 541.448 616.325 566.608 616.325 566.608L602.894 572.114 612.217 570.197C612.217 570.197 599.347 584.765 587.74 589.863 572.889 596.385 520.424 607.335 464.239 593.188 446.145 585.593 431.511 568.909 431.511 568.909L446.463 571.099Z" stroke="#000000" stroke-width="1.08102" stroke-miterlimit="10" fill="#FFFFFF" transform="matrix(1.0004 0 0 1 109.9 337.331)"/><path d="M601.435 571.089C604.955 569.581 611.054 567.333 611.054 567.333L609.814 573.31C609.814 573.31 603.964 574.226 599.439 575.464 590.406 577.935 584.14 576.574 584.14 576.574 584.14 576.574 590.874 575.613 601.435 571.089Z" transform="matrix(1.0004 0 0 1 109.9 337.331)"/><path d="M488.375 579.562C488.375 579.562 457.005 575.544 447.973 573.073 443.448 571.835 437.597 570.919 437.597 570.919L431.576 563.746C431.576 563.746 442.457 567.19 445.977 568.698 456.538 573.222 488.376 579.562 488.376 579.562Z" transform="matrix(1.0004 0 0 1 109.9 337.331)"/><path d="M464.697 403.692C464.697 403.692 413.058 406.787 402.615 399.951 378.354 384.07 377.532 373.206 377.532 373.206 377.532 373.206 417.222 354.345 434.332 355.035 451.587 355.73 483.404 370.434 483.404 370.434 483.404 370.434 481.265 381.729 478.022 388.736 473.568 398.357 464.697 403.692 464.697 403.692Z" fill="url(#fill9)" transform="matrix(1.0004 0 0 1 109.9 337.331)"/><path d="M405.705 379.212C405.705 363.489 418.451 350.743 434.174 350.743 449.896 350.743 462.642 363.489 462.642 379.212 462.642 394.934 449.896 407.68 434.174 407.68 418.451 407.68 405.705 394.934 405.705 379.212Z" fill="#3B2616" transform="matrix(1.0004 0 0 1 109.9 337.331)"/><path d="M407.418 379.212C407.418 364.435 419.397 352.456 434.173 352.456 448.95 352.456 460.929 364.435 460.929 379.212 460.929 393.988 448.95 405.967 434.173 405.967 419.397 405.967 407.418 393.988 407.418 379.212Z" fill="url(#fill10)" transform="matrix(1.0004 0 0 1 109.9 337.331)"/><path d="M414.18 381.54C414.18 370.299 423.293 361.187 434.533 361.187 445.773 361.187 454.885 370.299 454.885 381.54 454.885 392.78 445.773 401.893 434.533 401.893 423.292 401.893 414.18 392.78 414.18 381.54Z" fill="#6E4F37" transform="matrix(1.0004 0 0 1 109.9 337.331)"/><path d="M418.49 380.582C418.49 371.722 425.673 364.539 434.533 364.539 443.393 364.539 450.576 371.722 450.576 380.582 450.576 389.442 443.393 396.625 434.533 396.625 425.673 396.625 418.49 389.442 418.49 380.582Z" fill="#552C0E" transform="matrix(1.0004 0 0 1 109.9 337.331)"/><path d="M422.8 379.864C422.8 373.252 428.16 367.892 434.772 367.892 441.384 367.892 446.744 373.252 446.744 379.864 446.744 386.476 441.384 391.836 434.772 391.836 428.16 391.836 422.8 386.476 422.8 379.864Z" transform="matrix(1.0004 0 0 1 109.9 337.331)"/><path d="M457.487 384.832C457.278 385.274 456.937 387.939 454.24 388.252 451.354 388.587 447.741 385.891 445.593 385.085 445.483 385.047 445.376 385.005 445.27 384.959 443.757 384.299 442.699 382.79 442.699 381.034 442.699 378.669 444.616 376.753 446.98 376.753 450.343 376.125 459.636 380.301 457.487 384.832Z" fill="#FFFFFF" transform="matrix(1.0004 0 0 1 109.9 337.331)"/><path d="M425.151 394.236C422.445 396.008 419.177 396.172 417.851 394.602 416.525 393.032 417.643 390.323 420.349 388.551 423.055 386.779 426.324 386.615 427.65 388.185 428.976 389.755 427.857 392.464 425.151 394.236Z" fill="url(#fill11)" transform="matrix(1.0004 0 0 1 109.9 337.331)"/><path d="M424.452 393.697C422.341 395.08 419.79 395.207 418.756 393.982 417.721 392.757 418.594 390.643 420.705 389.261 422.817 387.878 425.367 387.751 426.402 388.976 427.437 390.201 426.563 392.315 424.452 393.697Z" fill="#FFFFFF" transform="matrix(1.0004 0 0 1 109.9 337.331)"/><path d="M422.449 385.363C423.041 386.332 421.675 388.246 419.398 389.638 417.121 391.029 414.794 391.372 414.202 390.403 413.61 389.434 414.976 387.52 417.253 386.128 419.531 384.737 421.857 384.394 422.449 385.363Z" fill="url(#fill12)" transform="matrix(1.0004 0 0 1 109.9 337.331)"/><path d="M422.074 385.956C422.567 386.763 421.429 388.356 419.533 389.515 417.637 390.674 415.7 390.96 415.206 390.153 414.713 389.346 415.851 387.752 417.747 386.593 419.643 385.434 421.581 385.149 422.074 385.956Z" fill="#FFFFFF" transform="matrix(1.0004 0 0 1 109.9 337.331)"/><path d="M375.627 366.277 375.627 338.839 485.379 338.839 485.379 366.277C485.379 366.277 448.637 362.294 426.865 361.704 410.049 361.247 375.627 366.277 375.627 366.277Z" fill="#A66745" transform="matrix(1.0004 0 0 1 109.9 337.331)"/><path d="M395.714 405.307 396.268 404.198 471.931 403.505 471.931 405.723Z" transform="matrix(1.0004 0 0 1 109.9 337.331)"/><path d="M391.641 422.386 391.641 405.335 475.424 405.335 475.424 422.386Z" fill="#A66745" transform="matrix(1.0004 0 0 1 109.9 337.331)"/><path d="M430.6 370.755C423.85 370.693 382.729 375.421 382.729 375.421L382.452 368.494C382.452 368.494 418.432 359.365 437.737 359.803 448.439 360.045 483.612 367.159 483.612 367.159L481.395 376.324C481.395 376.324 447 370.905 430.6 370.755Z" fill="url(#fill13)" transform="matrix(1.0004 0 0 1 109.9 337.331)"/><path d="M377.324 383.914C374.231 381.375 371.45 376.719 371.45 376.719 371.45 376.719 373.931 375.934 374.873 375.776 376.351 375.528 379.457 375.928 379.457 375.928 379.457 375.928 381.813 381.317 383.295 383.836 385.334 387.302 392.783 393.421 392.783 393.421 392.783 393.421 381.484 387.326 377.324 383.913Z" transform="matrix(1.0004 0 0 1 109.9 337.331)"/><path d="M500.991 376.38C500.991 376.38 472.483 363.026 439.765 362.29 389.064 361.15 379.472 376.739 379.472 376.739L371.504 377.224C371.504 377.224 378.241 365.154 391.495 361.776 406.295 358.005 423.834 356.784 428.251 356.784 444.568 356.784 471.789 359.915 476.855 361.825 479.326 362.684 500.991 376.38 500.991 376.38Z" transform="matrix(1.0004 0 0 1 109.9 337.331)"/><path d="M610.747 310.485C581.689 312.069 548.783 326.57 548.783 326.57L549.219 310.089C549.219 310.089 593.409 294.919 610.453 293.9 643.249 291.94 683.908 323.071 683.908 323.071 683.908 323.071 632.086 309.323 610.747 310.485Z" transform="matrix(1.0004 0 0 1 109.9 337.331)"/><path d="M349.885 321.529C349.885 321.529 390.544 290.398 423.34 292.358 440.384 293.377 484.574 308.547 484.574 308.547L485.01 325.028C485.01 325.028 452.104 310.527 423.045 308.944 401.706 307.781 349.885 321.529 349.885 321.529Z" transform="matrix(1.0004 0 0 1 109.9 337.331)"/><path d="M520.286 77.676C540.832 76.9384 553.661 132.276 560.366 209.914 500.851 206.86 316.289 211.892 312.11 212.551 332.292 125.801 407.317 81.7317 520.286 77.676Z" transform="matrix(1.0004 0 0 1 109.9 337.331)"/><path d="M519.251 77.6761C636.573 81.8881 703.236 132.221 725.288 214.699 690.076 210.912 518.091 210.096 479.522 209.001 486.32 133.468 499.059 76.9515 519.251 77.6763Z" transform="matrix(1.0004 0 0 1 109.9 337.331)"/><path d="M315.531 404.548 305.477 361.91 303.272 319.689C303.272 319.689 300.723 299.596 302.808 269.272 304.893 238.948 313.141 207.577 313.141 207.577L351.687 207.577C351.687 207.577 353.016 276.67 352.667 278.894 335.085 285.446 322.911 302.444 321.406 322.252 316.55 343.024 315.531 404.548 315.531 404.548Z" fill="url(#fill14)" transform="matrix(1.0004 0 0 1 109.9 337.331)"/><path d="M716.301 324.102C714.796 304.294 702.622 287.296 685.04 280.744 684.691 278.52 686.02 209.427 686.02 209.427L724.567 209.427C724.567 209.427 732.814 240.798 734.9 271.122 736.985 301.446 734.436 321.539 734.436 321.539L732.231 363.76 722.177 406.398C722.177 406.398 721.158 344.874 716.301 324.102Z" fill="url(#fill15)" transform="matrix(1.0004 0 0 1 109.9 337.331)"/></g></g></g><text font-family="SansSerif,SansSerif_MSFontService,sans-serif" font-weight="400" font-size="367" transform="matrix(1 0 0 1 1015.44 862)">MERCIFUL BOLAJI</text></g></svg>