<svg version="1.1" xmlns="http://www.w3.org/2000/svg" xmlns:xlink="http://www.w3.org/1999/xlink" width="324" height="324.06143" viewBox="0,0,324,324.06143"><defs><linearGradient x1="249.25" y1="31.02538" x2="249.25" y2="355.02538" gradientUnits="userSpaceOnUse" id="color-1"><stop offset="0" stop-color="#8fd8ff"/><stop offset="1" stop-color="#3cbbff"/></linearGradient><linearGradient x1="255.7256" y1="232.76338" x2="255.7256" y2="287.92068" gradientUnits="userSpaceOnUse" id="color-2"><stop offset="0" stop-color="#865338"/><stop offset="1" stop-color="#a66745"/></linearGradient><linearGradient x1="243.30543" y1="150.60687" x2="276.40149" y2="152.24785" gradientUnits="userSpaceOnUse" id="color-3"><stop offset="0" stop-color="#c7c7c7"/><stop offset="1" stop-color="#ffffff"/></linearGradient><radialGradient cx="261.01904" cy="151.32196" r="8.37424" gradientUnits="userSpaceOnUse" id="color-4"><stop offset="0" stop-color="#b07352"/><stop offset="1" stop-color="#72421e"/></radialGradient><radialGradient cx="264.41027" cy="155.5295" r="1.70813" gradientUnits="userSpaceOnUse" id="color-5"><stop offset="0" stop-color="#ffffff"/><stop offset="1" stop-color="#ffffff" stop-opacity="0"/></radialGradient><radialGradient cx="265.84527" cy="154.43663" r="1.33382" gradientUnits="userSpaceOnUse" id="color-6"><stop offset="0" stop-color="#ffffff"/><stop offset="1" stop-color="#ffffff" stop-opacity="0"/></radialGradient><linearGradient x1="260.38011" y1="145.94435" x2="260.18494" y2="150.32298" gradientUnits="userSpaceOnUse" id="color-7"><stop offset="0" stop-color="#774622"/><stop offset="1" stop-color="#774622" stop-opacity="0"/></linearGradient><linearGradient x1="332.81144" y1="148.58928" x2="303.14259" y2="151.56227" gradientUnits="userSpaceOnUse" id="color-8"><stop offset="0" stop-color="#c7c7c7"/><stop offset="1" stop-color="#ffffff"/></linearGradient><radialGradient cx="316.93161" cy="150.01887" r="7.58008" gradientUnits="userSpaceOnUse" id="color-9"><stop offset="0" stop-color="#b07352"/><stop offset="1" stop-color="#72421e"/></radialGradient><radialGradient cx="313.90462" cy="154.32325" r="1.54613" gradientUnits="userSpaceOnUse" id="color-10"><stop offset="0" stop-color="#ffffff"/><stop offset="1" stop-color="#ffffff" stop-opacity="0"/></radialGradient><radialGradient cx="312.61447" cy="153.2996" r="1.20734" gradientUnits="userSpaceOnUse" id="color-11"><stop offset="0" stop-color="#ffffff"/><stop offset="1" stop-color="#ffffff" stop-opacity="0"/></radialGradient><linearGradient x1="317.48705" y1="144.6681" x2="317.6763" y2="148.99576" gradientUnits="userSpaceOnUse" id="color-12"><stop offset="0" stop-color="#774622"/><stop offset="1" stop-color="#774622" stop-opacity="0"/></linearGradient><radialGradient cx="281.29671" cy="215.92337" r="47.91491" gradientUnits="userSpaceOnUse" id="color-13"><stop offset="0" stop-color="#ffffff"/><stop offset="1" stop-color="#ffffff" stop-opacity="0"/></radialGradient><linearGradient x1="271.38425" y1="297.4154" x2="271.38425" y2="327.66772" gradientUnits="userSpaceOnUse" id="color-14"><stop offset="0" stop-color="#cc4f10"/><stop offset="1" stop-color="#cc4f10" stop-opacity="0"/></linearGradient><linearGradient x1="238.16562" y1="270.73997" x2="215.59061" y2="294.92532" gradientUnits="userSpaceOnUse" id="color-15"><stop offset="0" stop-color="#df5a18"/><stop offset="1" stop-color="#df5a18" stop-opacity="0"/></linearGradient></defs><g transform="translate(-87.25,-31.02537)"><g data-paper-data="{&quot;isPaintingLayer&quot;:true}" fill-rule="nonzero" stroke-linecap="butt" stroke-linejoin="miter" stroke-miterlimit="10" stroke-dasharray="" stroke-dashoffset="0" style="mix-blend-mode: normal"><path d="M87.25,193.02538c0,-89.47013 72.52987,-162 162,-162c89.47013,0 162,72.52987 162,162c0,89.47013 -72.52987,162 -162,162c-89.47013,0 -162,-72.52987 -162,-162z" fill="url(#color-1)" stroke="none" stroke-width="0"/><g data-paper-data="{&quot;index&quot;:null}" fill="none" stroke="none" stroke-width="1" font-family="sans-serif" font-weight="normal" font-size="12" text-anchor="start"><g><g/><g><g/><g/><g/></g></g><g><g/></g></g><path d="" data-paper-data="{&quot;index&quot;:null}" fill="#ffffff" stroke="none" stroke-width="0.5"/><g><path d="M231.42874,300.85381c-21.92793,0.08981 -67.58525,-11.77081 -67.58525,-11.77081c0,0 38.04181,-12.14118 40.67841,-38.53556c3.46011,-16.64802 -4.32954,-66.39004 -4.32954,-66.39004l64.17133,48.60602c0,0 20.98921,22.74729 23.9783,32.32737c1.13853,3.64904 22.62147,19.22774 23.25346,30.15999c0.84339,14.58906 -19.35646,24.78716 -19.35646,24.78716c0,0 -4.52074,8.77578 -26.12856,7.21525c-1.05817,-0.07642 -33.69915,-26.4034 -34.68168,-26.39938z" data-paper-data="{&quot;index&quot;:null}" fill="url(#color-2)" stroke="none" stroke-width="0"/><g><path d="M328.89506,204.20131c-9.99907,24.44441 -20.09806,43.77482 -32.61311,54.01557c-7.57508,6.1985 -16.33136,3.59232 -29.33817,2.54493c-11.63084,-0.93659 -52.92013,-37.2429 -58.1337,-50.0942c-3.61236,-6.86509 -3.49628,-17.09847 -3.49628,-17.09847c0,0 -27.60834,-58.55018 -27.06361,-74.0412c1.48626,-42.26609 28.2039,-65.5373 75.24601,-67.22614c8.38414,-0.30098 51.66698,2.54708 68.71334,32.7716c10.59926,18.79325 17.82177,39.9582 14.7192,59.74971c-2.97244,18.96141 -0.59949,41.20398 -8.03369,59.37819z" data-paper-data="{&quot;index&quot;:null,&quot;origRot&quot;:0}" fill="#a66745" stroke="#000000" stroke-width="0"/><g data-paper-data="{&quot;index&quot;:null}" fill="#000000" stroke="#000000" stroke-width="0"><path d="M253.3334,48.33935c24.97322,1.3897 65.31594,17.60011 70.96349,42.46489c-0.42585,-0.0671 -25.28377,1.29182 -44.5543,1.83113c-16.63532,0.46554 -28.09735,0.11835 -28.09735,0.11835z" data-paper-data="{&quot;index&quot;:null,&quot;origRot&quot;:0}"/><path d="M254.74453,48.33944c6.91889,-0.24839 23.32986,18.32488 25.65906,44.20686c-25.40953,2.50005 -52.86923,2.94568 -72.45413,2.67301c-12.14911,-0.16914 -21.41004,-1.05866 -26.02927,-0.56175c6.28833,-28.89598 32.62274,-44.87491 72.82437,-46.31819z" data-paper-data="{&quot;index&quot;:null,&quot;origRot&quot;:0}"/></g><path d="M229.2122,117.49983c-2.30722,0.85977 -14.21372,3.42444 -18.62471,14.04548c-6.84701,10.88785 -2.90783,31.87152 -2.90783,31.87152c0,0 -10.48452,-3.78702 -15.08397,-8.8592c-4.59945,-5.07219 -10.00129,-6.2783 -10.00129,-6.2783c0,0 -7.28565,-14.7637 -5.41427,-31.68279c1.5954,-14.42417 5.0978,-23.11149 5.0978,-23.11149c0,0 14.52213,-1.51712 21.70278,-1.37519c7.07503,0.13982 24.67724,2.22052 24.67724,2.22052z" data-paper-data="{&quot;index&quot;:null}" fill="#000000" stroke="none" stroke-width="0"/><path d="M277.46745,191.07698c0.77115,-0.3544 1.15668,0.35444 1.15668,0.35444l0.26957,0.5865c0.19414,0.07482 0.38828,0.14965 0.58244,0.22445c6.85758,2.09376 10.00251,4.09529 17.18617,2.46102c1.43897,-0.32736 6.21026,-2.52935 5.99871,-4.10637c0,0 0.47438,-1.58498 1.33651,-1.58498c0.86214,0 0.86214,0.79248 0.86214,0.79248c-2.27368,11.56212 -21.31419,6.22152 -26.28053,4.69462c-0.3806,-0.18934 -0.52403,-1.1712 -0.90464,-1.36054l-0.59256,-0.99844c0,0 -0.3856,-0.70882 0.38556,-1.06324z" data-paper-data="{&quot;index&quot;:null}" fill="#000000" stroke="none" stroke-width="0.5"/><path d="M197.14296,200.676c-8.65983,2.70941 -20.27566,-9.23639 -24.32931,-23.90617c-4.05365,-14.66978 -3.48277,-28.30066 5.17706,-31.01011c8.65985,-2.70949 22.12933,6.5286 26.18296,21.19838c4.05363,14.66976 1.62914,31.00839 -7.03069,33.71785z" data-paper-data="{&quot;index&quot;:null}" fill="#a66745" stroke="none" stroke-width="0"/><g data-paper-data="{&quot;index&quot;:null}" stroke="none"><path d="M270.19947,159.8947c0,0 -16.18808,0.22357 -19.35188,-2.20015c-7.34964,-5.63026 -7.44636,-9.23769 -7.44636,-9.23769c0,0 12.68521,-5.62515 18.02392,-5.13165c5.38363,0.49761 15.11296,5.85563 15.11296,5.85563c0,0 -0.83533,3.70385 -1.95262,5.97185c-1.53419,3.11439 -4.38599,4.74209 -4.38599,4.74209z" fill="url(#color-3)" stroke-width="0"/><g><g stroke-width="0"><path d="M260.59911,160.74096c-4.91492,-0.24366 -8.71134,-4.65825 -8.47945,-9.86026c0.23188,-5.20196 4.40424,-9.22147 9.31918,-8.97777c4.91492,0.24366 8.7113,4.65825 8.47942,9.86026c-0.23188,5.20196 -4.40421,9.22147 -9.31913,8.97777z" fill="#3b2616"/><path d="M269.38307,151.73663c-0.21796,4.88909 -4.13929,8.66683 -8.75861,8.43776c-4.61926,-0.22903 -8.18733,-4.37807 -7.96936,-9.26715c0.21792,-4.88909 4.13927,-8.66685 8.75857,-8.4378c4.61926,0.22903 8.18733,4.3781 7.96936,9.26719z" fill="url(#color-4)"/></g><g><g stroke-width="0"><path d="M267.2347,152.40228c-0.16578,3.71902 -3.14865,6.59265 -6.66245,6.41842c-3.5138,-0.17422 -6.22789,-3.33032 -6.06211,-7.04934c0.16578,-3.71902 3.14865,-6.59263 6.66245,-6.4184c3.5138,0.17422 6.22793,3.33027 6.06214,7.04929z" fill="#6e4f37"/><path d="M260.6499,157.07778c-2.76971,-0.13733 -4.90902,-2.625 -4.77837,-5.5565c0.13069,-2.93148 2.48191,-5.19658 5.25157,-5.05925c2.76971,0.13733 4.90907,2.62504 4.7784,5.55652c-0.13069,2.93143 -2.48195,5.19654 -5.25161,5.05921z" fill="#552c0e"/><path d="M260.64579,155.48964c-2.06691,-0.10247 -3.66344,-1.95906 -3.56594,-4.14671c0.09748,-2.18766 1.85213,-3.878 3.91908,-3.77551c2.06695,0.10247 3.66344,1.95899 3.56594,4.14665c-0.09751,2.18772 -1.85213,3.87805 -3.91908,3.77556z" fill="#000000"/></g><g><path d="M253.64828,152.82011c-0.60489,-1.53242 2.36187,-2.76996 3.40373,-2.51022c0.7391,0.03664 1.30997,0.70052 1.2751,1.48277c-0.02589,0.58114 -0.37883,1.06413 -0.86165,1.25904c-0.03366,0.0136 -0.06794,0.02574 -0.1028,0.03648c-0.68335,0.2336 -1.85247,1.06939 -2.74981,0.91395c-0.83852,-0.1452 -0.90562,-1.03254 -0.96465,-1.18201z" fill="#ffffff" stroke-width="0.5"/><g stroke-width="0"><path d="M262.92604,154.39211c0.43768,-0.49889 1.45703,-0.39413 2.27679,0.23407c0.81974,0.6282 1.12958,1.54179 0.69192,2.04072c-0.43764,0.49889 -1.45708,0.39416 -2.27682,-0.23403c-0.81978,-0.6282 -1.12956,-1.54184 -0.69188,-2.04075z" fill="url(#color-5)"/><path d="M263.30454,154.67304c0.3415,-0.38929 1.1369,-0.30755 1.77656,0.18261c0.63971,0.49014 0.88137,1.20306 0.53988,1.59234c-0.3415,0.38928 -1.1369,0.30755 -1.77656,-0.18261c-0.63967,-0.49014 -0.88137,-1.20306 -0.53988,-1.59234z" fill="#ffffff"/></g><g stroke-width="0"><path d="M264.59348,153.53904c0.19937,-0.31148 0.92151,-0.16206 1.6129,0.33369c0.69139,0.49576 1.09018,1.15007 0.8908,1.46156c-0.19943,0.31145 -0.92155,0.16201 -1.61292,-0.33373c-0.69139,-0.49579 -1.09014,-1.15007 -0.89075,-1.46156z" fill="url(#color-6)"/><path d="M266.04513,154.01885c0.57573,0.41286 0.90782,0.9577 0.74175,1.21708c-0.16607,0.25938 -0.76744,0.13495 -1.34315,-0.27789c-0.57573,-0.41286 -0.90782,-0.95774 -0.74175,-1.2171c0.16607,-0.25938 0.76744,-0.13491 1.34315,0.27791z" fill="#ffffff"/></g></g></g></g><g><g stroke-width="0"><path d="M258.99274,145.41599c-5.25031,-0.41165 -16.08481,0.71884 -16.08481,0.71884l0.40468,-9.07819l34.30891,1.70113l-0.40468,9.07817c0,0 -11.42687,-1.88708 -18.22414,-2.41994z" fill="#a66745"/><g><g><g><path d="M248.61151,159.35985l0.18967,-0.35821l23.66262,0.94347l-0.03273,0.73359z" fill="#000000"/><path d="M247.08635,164.94738l0.25148,-5.64142l26.1911,1.29859l-0.25151,5.64142z" fill="#a66745"/></g></g></g></g><g><path d="M260.02659,148.46861c-2.10916,-0.12506 -15.03338,0.8019 -15.03338,0.8019l0.01553,-2.29629c0,0 11.38211,-2.46261 17.41061,-2.01863c3.34165,0.24614 14.23219,3.14479 14.23219,3.14479l-0.82831,2.99797c0,0 -10.67208,-2.32588 -15.79671,-2.62973z" fill="url(#color-7)" stroke-width="0"/><path d="M243.17848,151.99654c-0.92963,-0.88783 -1.7303,-2.47129 -1.7303,-2.47129c0,0 0.78707,-0.22126 1.08394,-0.25905c0.46557,-0.05927 1.43078,0.12122 1.43078,0.12122c0,0 0.65697,1.81971 1.08302,2.67595c0.58641,1.17856 2.82454,3.31849 2.82454,3.31849c0,0 -3.44218,-2.1917 -4.69202,-3.38537z" fill="#000000" stroke-width="0.5"/><path d="M281.94825,151.42089c0,0 -8.71477,-4.86031 -18.93172,-5.61088c-15.83263,-1.16317 -19.06077,3.84618 -19.06077,3.84618l-2.49804,0.03698c0,0 2.28379,-3.88913 6.47691,-4.80124c4.68231,-1.0185 10.18294,-1.15042 11.56382,-1.08197c5.10053,0.25287 13.564,1.71072 15.11946,2.42095c0.75972,0.32245 7.3303,5.18999 7.3303,5.18999z" fill="#000000" stroke-width="0.5"/></g></g></g><path d="M232.77788,133.23109c0,0 13.7731,-11.70391 24.88273,-10.96705c5.77359,0.38296 20.74289,6.08648 20.74289,6.08648l0.14763,6.19606c0,0 -11.14687,-6.56977 -20.99028,-7.16501c-7.2286,-0.43718 -24.78296,5.84951 -24.78296,5.84951z" data-paper-data="{&quot;index&quot;:null}" fill="#000000" stroke="none" stroke-width="0"/><g data-paper-data="{&quot;index&quot;:null}" stroke="none"><path d="M308.72797,158.88147c0,0 -2.56218,-1.49547 -3.94784,-4.51675c-1.00905,-2.20022 -1.77006,-5.83367 -1.77006,-5.83367c0,0 8.70609,-5.7017 13.53152,-6.41377c4.78515,-0.70613 16.17698,4.34702 16.17698,4.34702c0,0 -0.07507,3.57592 -6.64661,9.45025c-2.82888,2.52879 -17.34396,2.96686 -17.34396,2.96686z" fill="url(#color-8)" stroke-width="0"/><g><g stroke-width="0"><path d="M317.33859,159.32831c-4.40598,0.44152 -8.15994,-3.36853 -8.38468,-8.50994c-0.2247,-5.1415 3.16487,-9.66734 7.57086,-10.10885c4.40598,-0.44152 8.15994,3.36853 8.38468,8.50994c0.2247,5.14148 -3.16487,9.66731 -7.57086,10.10881z" fill="#3b2616"/><path d="M317.31407,158.76835c-4.14101,0.41498 -7.66911,-3.16589 -7.88032,-7.99806c-0.21124,-4.83216 2.97448,-9.08578 7.11543,-9.50075c4.14101,-0.41498 7.66911,3.16589 7.88032,7.99808c0.21126,4.83215 -2.97448,9.08575 -7.11543,9.50071z" fill="url(#color-9)"/></g><g><g stroke-width="0"><path d="M317.35648,157.42569c-3.14998,0.31565 -5.83372,-2.40822 -5.99442,-6.08396c-0.16066,-3.6757 2.26262,-6.91131 5.41257,-7.22698c3.14993,-0.31561 5.83369,2.40822 5.99438,6.08396c0.16069,3.67572 -2.26259,6.91136 -5.41255,7.22701z" fill="#6e4f37"/><path d="M312.55616,150.9075c-0.12663,-2.8973 1.78354,-5.44777 4.26639,-5.69659c2.48287,-0.24879 4.59831,1.89826 4.72498,4.7956c0.12661,2.89733 -1.7835,5.44775 -4.26637,5.69657c-2.48284,0.24875 -4.59837,-1.89826 -4.72502,-4.79556z" fill="#552c0e"/><path d="M313.75378,150.55161c-0.09452,-2.16219 1.33092,-4.06548 3.18381,-4.25118c1.85291,-0.18568 3.43161,1.41662 3.52612,3.57879c0.09454,2.16219 -1.33096,4.06554 -3.18385,4.25122c-1.85291,0.18566 -3.43157,-1.41662 -3.52609,-3.57884z" fill="#000000"/></g><g><path d="M322.68408,152.41176c-0.8041,0.19048 -1.85505,-0.58946 -2.46849,-0.79291c-0.03128,-0.00916 -0.06203,-0.01985 -0.09226,-0.03191c-0.43348,-0.17338 -0.75153,-0.63723 -0.77662,-1.2116c-0.03377,-0.77314 0.47593,-1.45371 1.13849,-1.52012c0.93331,-0.29968 3.59731,0.80486 3.05994,2.34688c-0.05241,0.15043 -0.10973,1.03172 -0.86104,1.20968z" fill="#ffffff" stroke-width="0.5"/><g stroke-width="0"><path d="M314.61802,155.18549c-0.73298,0.65542 -1.64662,0.80069 -2.04066,0.32447c-0.39404,-0.4762 -0.11925,-1.39347 0.61373,-2.04889c0.73298,-0.6554 1.64662,-0.80071 2.04066,-0.32451c0.394,0.47618 0.11925,1.39349 -0.61374,2.04891z" fill="url(#color-10)"/><path d="M312.82213,155.28204c-0.30744,-0.37154 -0.09306,-1.08738 0.47892,-1.59874c0.57193,-0.51134 1.28488,-0.62471 1.59232,-0.25317c0.30744,0.37154 0.09302,1.08736 -0.47894,1.59871c-0.57198,0.51138 -1.28484,0.62473 -1.59228,0.25319z" fill="#ffffff"/></g><g stroke-width="0"><path d="M312.28895,152.75598c0.61826,-0.51906 1.26525,-0.69643 1.44503,-0.39613c0.17978,0.30028 -0.17563,0.96445 -0.79394,1.48349c-0.61829,0.51901 -1.2653,0.69641 -1.4451,0.39613c-0.1798,-0.30028 0.17567,-0.96447 0.79398,-1.48353z" fill="url(#color-11)"/><path d="M313.63728,152.56417c0.14976,0.25003 -0.14622,0.80311 -0.6611,1.23534c-0.51484,0.43223 -1.05357,0.5799 -1.20335,0.32987c-0.14976,-0.25003 0.14626,-0.80311 0.66116,-1.23534c0.51484,-0.43223 1.05354,-0.5799 1.20333,-0.32987z" fill="#ffffff"/></g></g></g></g><g><g stroke-width="0"><path d="M333.15357,144.14506c0,0 -9.71798,-0.67804 -14.42411,-0.05658c-6.09274,0.80455 -16.33208,3.13854 -16.33208,3.13854l-0.39222,-8.97254l30.7562,-3.082l0.3922,8.97254z" fill="#a66745"/><g><g><g><path d="M306.72971,159.7486l-0.03172,-0.72499l21.21307,-1.89814l0.17121,0.34691z" fill="#000000"/><path d="M305.9889,165.29562l-0.24374,-5.5757l23.47892,-2.35276l0.24372,5.57572z" fill="#a66745"/></g></g></g></g><g><path d="M317.81226,147.15317c-4.5938,0.50957 -14.15496,3.24739 -14.15496,3.24739l-0.75239,-2.93475c0,0 9.75519,-3.31381 12.75054,-3.69365c5.40373,-0.68522 15.61698,1.28957 15.61698,1.28957l0.02138,2.27307c0,0 -11.59097,-0.39135 -13.48166,-0.18162z" fill="url(#color-12)" stroke-width="0"/><path d="M332.92988,149.96011c-1.11681,1.23281 -4.19598,3.54323 -4.19598,3.54323c0,0 1.99978,-2.21007 2.52177,-3.40094c0.37924,-0.86519 0.96243,-2.69381 0.96243,-2.69381c0,0 0.86484,-0.21805 1.28244,-0.17834c0.26629,0.02529 0.97268,0.21235 0.97268,0.21235c0,0 -0.71276,1.60051 -1.54337,2.51747z" fill="#000000" stroke-width="0.5"/><path d="M298.16667,150.96938c0,0 5.87549,-5.08738 6.55559,-5.43759c1.39235,-0.76661 8.97611,-2.55491 13.54843,-3.0131c1.2379,-0.124 6.17027,-0.21747 10.37174,0.60029c3.76255,0.73235 5.82283,4.49025 5.82283,4.49025l-2.23991,0.06511c0,0 -2.9105,-4.82865 -17.10244,-3.03194c-9.15824,1.15942 -16.9562,6.32697 -16.9562,6.32697z" fill="#000000" stroke-width="0.5"/></g></g></g><path d="M334.67329,128.39873c0,0 -7.42518,-3.58642 -14.77723,-1.97835c-7.35204,1.60812 -19.56868,8.29442 -19.56868,8.29442l-0.56238,-5.42673c0,0 15.19092,-6.73714 19.49955,-7.70743c8.29074,-1.86705 15.40875,6.81814 15.40875,6.81814z" data-paper-data="{&quot;index&quot;:null}" fill="#000000" stroke="none" stroke-width="0"/><g data-paper-data="{&quot;index&quot;:null}" stroke="#000000"><g data-paper-data="{&quot;origPos&quot;:null,&quot;index&quot;:null,&quot;origRot&quot;:0}" fill="#ffffff" stroke-width="0.5"><path d="M261.0393,216.51839c-1.07291,-4.1598 -0.43104,-7.96214 4.69247,-8.98286c8.26895,-1.64736 19.7947,3.78135 26.68835,3.31214c10.67453,0.32534 14.86522,-2.93145 19.34558,-2.03949c3.34468,0.66588 3.65927,8.27333 3.65927,8.27333l-3.48097,1.28928l2.90477,-0.96959c0,0 -0.3284,2.97906 -4.31155,5.9837c-3.51221,2.64939 -21.85461,6.18262 -40.30782,0.8157c-5.41199,-2.27157 -8.40723,-4.64686 -9.19008,-7.68218z" data-paper-data="{&quot;origPos&quot;:null,&quot;index&quot;:null}"/></g><path d="M309.82223,218.07087c1.34777,-0.27376 3.67269,-0.63927 3.67269,-0.63927l-0.62645,1.72236c0,0 -2.92685,0.19192 -4.63997,0.33468c-3.41919,0.28494 -4.97437,-0.64719 -4.97437,-0.64719c0,0 2.52482,0.05071 6.56809,-0.77058z" data-paper-data="{&quot;origPos&quot;:null}" fill="#000000" stroke-width="0"/><path d="M266.82168,216.1228c7.11252,2.19362 11.66386,2.67781 11.66386,2.67781c0,0 -2.97922,1.11726 -9.07386,-0.09419c-3.05359,-0.60698 -8.28075,-1.56228 -8.28075,-1.56228l0.00175,-2.44996c0,0 3.31805,0.69738 5.68896,1.42861z" data-paper-data="{&quot;index&quot;:null}" fill="#000000" stroke-width="0"/></g></g></g><path d="M287.48395,262.70948c11.16904,13.93222 67.16648,1.8548 80.9981,39.67059c-5.06842,6.68261 -48.43993,51.14064 -114.7748,52.65943c-87.35226,2 -130.48169,-60.08618 -130.48169,-60.08618c0,0 4.28102,1.46058 18.14138,-6.01697c31.7378,-17.12225 53.90315,-39.70214 53.90315,-39.70214c0,0 26.38925,7.44981 38.69026,18.26827c12.44451,10.94467 43.55128,31.02553 43.55128,31.02553c0,0 6.29698,-9.79732 8.44091,-19.17465c2.14849,-9.39727 0.14539,-18.37277 1.53141,-16.64386z" data-paper-data="{&quot;index&quot;:null}" fill="#f08148" stroke="none" stroke-width="0"/><path d="M231.28723,225.6767l41.42806,-8.04264l-16.2837,-54.07193l21.01028,53.32559l52.98868,-5.09095l-51.39911,8.63149l17.80618,46.40529l-22.71852,-45.5232z" data-paper-data="{&quot;origRot&quot;:0,&quot;index&quot;:null}" fill="url(#color-13)" stroke="none" stroke-width="0"/><path d="M276.25,299.12375c0,0 5.21792,-11.16098 7.99409,-21.75555c1.61082,-6.1473 0.81011,-12.98762 3.0059,-14.91111c7.58738,-6.64647 18.66666,14.66666 18.66666,14.66666c0,0 -8.99185,-8.76817 -13.33333,-4.33333c-1.88102,1.92147 -4.01045,9.12123 -6.95339,14.39782c-3.84951,6.90202 -9.37993,11.93551 -9.37993,11.93551z" fill="#f0f0f0" stroke="none" stroke-width="0"/><path d="M269.77107,336.00105c0,0 -1.39377,-8.44953 -2.49893,-12.73751c-0.52177,-2.02445 1.04838,-8.36323 0.80901,-9.81606c-0.69515,-4.21913 3.52823,-16.79272 3.52823,-16.79272l3.9939,0.76065c0,0 -3.39665,11.69086 -3.65631,16.11741c-0.27191,4.63558 -2.17591,22.46824 -2.17591,22.46824z" fill="url(#color-14)" stroke="none" stroke-width="0"/><path d="M274.91667,309.84999c0,-1.65686 1.34314,-3 3,-3c1.65686,0 3,1.34314 3,3c0,1.65686 -1.34314,3 -3,3c-1.65686,0 -3,-1.34314 -3,-3z" fill="#a73a0c" stroke="none" stroke-width="0"/><path d="M273.58333,320.18333c0,-1.65686 1.34314,-3 3,-3c1.65686,0 3,1.34314 3,3c0,1.65686 -1.34314,3 -3,3c-1.65686,0 -3,-1.34314 -3,-3z" fill="#a73a0c" stroke="none" stroke-width="0"/><path d="M200.23385,280.59097c-7.82763,-7.28984 -20.2682,-21.43911 -20.2682,-21.43911c0,0 17.74052,-27.21682 24.90568,-17.19937c3.01761,3.64708 7.06466,14.0292 16.23921,20.52189c6.90035,4.88327 23.04977,8.98382 30.54694,15.2982c13.76381,11.59236 22.0634,20.76554 22.0634,20.76554c0,0 0.53667,1.82099 -3.08206,0.49819c-4.98885,-1.82363 -14.87343,-6.92055 -17.81325,-6.57828c-5.44144,0.63353 -8.8122,4.6487 -13.92934,6.02887c-5.74304,1.54897 -10.24665,1.93625 -10.24665,1.93625c0,0 -21.05847,-12.9804 -28.41573,-19.83218z" fill="url(#color-15)" stroke="none" stroke-width="0"/><path d="M203.20451,273.48549c-8.0605,-7.0315 -20.95451,-20.76882 -20.95451,-20.76882c0,0 16.84628,-27.77921 24.33334,-18c3.13459,3.54704 7.51703,13.79209 16.89782,19.98307c7.05547,4.65635 19.05281,10.03635 26.75131,16.10365c14.13342,11.13875 26.68419,28.91328 26.68419,28.91328c0,0 -3.16376,-1.2781 -7.36831,-4.17607c-5.17978,-3.57014 -11.93914,-8.90848 -16.30876,-9.00145c-3.65,-0.07766 -5.74174,2.03003 -10.81131,3.57583c-5.68964,1.73487 -10.17829,2.26836 -10.17829,2.26836c0,0 -21.46935,-12.28889 -29.04548,-18.89785z" fill="#f0f0f0" stroke="none" stroke-width="0"/></g></g></svg>