<svg version="1.1" xmlns="http://www.w3.org/2000/svg" xmlns:xlink="http://www.w3.org/1999/xlink" width="134" height="170.86667" viewBox="0,0,134,170.86667"><defs><linearGradient x1="211.42999" y1="177.17814" x2="255.42999" y2="177.17814" gradientUnits="userSpaceOnUse" id="color-1"><stop offset="0" stop-color="#3648ff"/><stop offset="1" stop-color="#1e278e"/></linearGradient><linearGradient x1="211.50001" y1="117.80003" x2="255.50001" y2="117.80003" gradientUnits="userSpaceOnUse" id="color-2"><stop offset="0" stop-color="#3648ff"/><stop offset="1" stop-color="#1e278e"/></linearGradient></defs><g transform="translate(-121.5,-82.30002)"><g data-paper-data="{&quot;isPaintingLayer&quot;:true}" fill-rule="nonzero" stroke="#000000" stroke-width="0" stroke-linecap="butt" stroke-linejoin="miter" stroke-miterlimit="10" stroke-dasharray="" stroke-dashoffset="0" style="mix-blend-mode: normal"><path d="M211.42999,173.67814v-32l44,39v32z" fill="url(#color-1)"/><path d="M211.50001,114.30003v-32l44,39v32z" fill="url(#color-2)"/><path d="M167.82102,125.21669l-29.16667,-24.16666l72.86667,-18.75v31.5z" fill="#ff6436"/><path d="M172.11668,252.78336l23.41666,-37.08334l59.83334,-16.83334v31.5z" fill="#ff6436"/><path d="M172.25001,175.05003l23.41666,-37.08334l59.5,-16.5v31.5z" fill="#ff6436"/><g fill="#3648ff"><path d="M121.5,215.30002v-112l26,21.5v112z"/><path d="M136.03335,150.5v-35.26667l31,26v35.26667z"/><path d="M136.03335,227.16669v-35.26667l31,26v35.26667z"/></g></g></g></svg>