<svg version="1.1" xmlns="http://www.w3.org/2000/svg" xmlns:xlink="http://www.w3.org/1999/xlink" width="45.16824" height="27.60548" viewBox="0,0,45.16824,27.60548"><g transform="translate(-217.85965,-152.6552)"><g data-paper-data="{&quot;isPaintingLayer&quot;:true}" fill="#ffffff" fill-rule="nonzero" stroke="#ffffff" stroke-width="0" stroke-linecap="butt" stroke-linejoin="miter" stroke-miterlimit="10" stroke-dasharray="" stroke-dashoffset="0" style="mix-blend-mode: normal"><path d="M226.2865,178.6492c-1.9282,1.9273 -5.0554,1.925 -6.9822,-0.0051c-1.9282,-1.9292 -1.9259,-5.0555 0.0051,-6.9837c7.6188,-7.6077 17.5877,-17.5616 17.5877,-17.5616c1.9292,-1.9268 5.056,-1.9245 6.9832,0.0051c0,0 11.5359,11.5513 17.7038,17.7292c1.9273,1.9296 1.9245,5.0554 -0.0051,6.9836c-1.9296,1.9273 -5.0559,1.925 -6.9832,-0.0051c-7.6072,-7.6188 -9.2762,-9.2703 -9.2762,-9.2703c0,0 -3.35801,-3.92593 -4.86231,-3.93111c-1.75041,-0.00602 -5.01409,3.89711 -5.01409,3.89711c0,0 -2.977,2.973 -9.1567,9.1419z"/></g></g></svg>